<svg xmlns="http://www.w3.org/2000/svg" width="1200" height="480" viewBox="0 0 1200 480"><rect width="1200" height="480" fill="#fff"/><path fill="none" stroke="#333" stroke-width="1.333" d="M65.170833 20.0 L65.170833 430.266667"/><path fill="none" stroke="#333" stroke-width="1.333" d="M65.170833 430.266667 L70.504167 430.266667"/><path fill="none" stroke="#333" stroke-width="1.333" d="M65.170833 371.65714 L70.504167 371.65714"/><path fill="none" stroke="#333" stroke-width="1.333" d="M65.170833 313.047614 L70.504167 313.047614"/><path fill="none" stroke="#333" stroke-width="1.333" d="M65.170833 254.438081 L70.504167 254.438081"/><path fill="none" stroke="#333" stroke-width="1.333" d="M65.170833 195.828561 L70.504167 195.828561"/><path fill="none" stroke="#333" stroke-width="1.333" d="M65.170833 137.219041 L70.504167 137.219041"/><path fill="none" stroke="#333" stroke-width="1.333" d="M65.170833 78.609496 L70.504167 78.609496"/><path fill="none" stroke="#333" stroke-width="1.333" d="M65.170833 20.0 L70.504167 20.0"/><text x="20" y="435.267" fill="#333" font-family="Arial,Helvetica,'Helvetica Neue',sans-serif" font-size="14.667">-35.0</text><text x="20" y="376.657" fill="#333" font-family="Arial,Helvetica,'Helvetica Neue',sans-serif" font-size="14.667">-22.9</text><text x="20" y="318.048" fill="#333" font-family="Arial,Helvetica,'Helvetica Neue',sans-serif" font-size="14.667">-10.7</text><text x="33.047" y="259.438" fill="#333" font-family="Arial,Helvetica,'Helvetica Neue',sans-serif" font-size="14.667">1.4</text><text x="24.891" y="200.829" fill="#333" font-family="Arial,Helvetica,'Helvetica Neue',sans-serif" font-size="14.667">13.6</text><text x="24.891" y="142.219" fill="#333" font-family="Arial,Helvetica,'Helvetica Neue',sans-serif" font-size="14.667">25.7</text><text x="24.891" y="83.609" fill="#333" font-family="Arial,Helvetica,'Helvetica Neue',sans-serif" font-size="14.667">37.9</text><text x="24.891" y="25" fill="#333" font-family="Arial,Helvetica,'Helvetica Neue',sans-serif" font-size="14.667">50.0</text><path fill="none" stroke="#333" stroke-width="1.333" d="M65.170833 430.266667 L1180.0 430.266667"/><path fill="none" stroke="#333" stroke-width="1.333" d="M65.170833 430.266667 L65.170833 424.933333"/><path fill="none" stroke="#333" stroke-width="1.333" d="M224.43215 430.266667 L224.43215 424.933333"/><path fill="none" stroke="#333" stroke-width="1.333" d="M383.693467 430.266667 L383.693467 424.933333"/><path fill="none" stroke="#333" stroke-width="1.333" d="M542.9548 430.266667 L542.9548 424.933333"/><path fill="none" stroke="#333" stroke-width="1.333" d="M702.2161 430.266667 L702.2161 424.933333"/><path fill="none" stroke="#333" stroke-width="1.333" d="M861.4774 430.266667 L861.4774 424.933333"/><path fill="none" stroke="#333" stroke-width="1.333" d="M1020.738766 430.266667 L1020.738766 424.933333"/><path fill="none" stroke="#333" stroke-width="1.333" d="M1180.0 430.266667 L1180.0 424.933333"/><text x="48.452" y="456" fill="#333" font-family="Arial,Helvetica,'Helvetica Neue',sans-serif" font-size="14.667">-12.0</text><text x="211.792" y="456" fill="#333" font-family="Arial,Helvetica,'Helvetica Neue',sans-serif" font-size="14.667">-7.1</text><text x="371.053" y="456" fill="#333" font-family="Arial,Helvetica,'Helvetica Neue',sans-serif" font-size="14.667">-2.3</text><text x="532.759" y="456" fill="#333" font-family="Arial,Helvetica,'Helvetica Neue',sans-serif" font-size="14.667">2.6</text><text x="692.021" y="456" fill="#333" font-family="Arial,Helvetica,'Helvetica Neue',sans-serif" font-size="14.667">7.4</text><text x="847.204" y="456" fill="#333" font-family="Arial,Helvetica,'Helvetica Neue',sans-serif" font-size="14.667">12.3</text><text x="1006.465" y="456" fill="#333" font-family="Arial,Helvetica,'Helvetica Neue',sans-serif" font-size="14.667">17.1</text><text x="1165.727" y="456" fill="#333" font-family="Arial,Helvetica,'Helvetica Neue',sans-serif" font-size="14.667">22.0</text><path fill="none" stroke="#06c" stroke-width="2" d="M130.74902 97.226667 L196.327206 174.453333 L524.218137 280.64 L753.741789 169.626667 L786.530882 382.0 L852.109069 372.346667"/><path fill="#06c" d="M134.74902 97.226667 M126.74902 97.226667 a4.0 4.0 0 1 0 8.0 0 a4.0 4.0 0 1 0 -8.0 0"/><path fill="#06c" d="M200.327206 174.453333 M192.327206 174.453333 a4.0 4.0 0 1 0 8.0 0 a4.0 4.0 0 1 0 -8.0 0"/><path fill="#06c" d="M528.218137 280.64 M520.218137 280.64 a4.0 4.0 0 1 0 8.0 0 a4.0 4.0 0 1 0 -8.0 0"/><path fill="#06c" d="M757.741789 169.626667 M749.741789 169.626667 a4.0 4.0 0 1 0 8.0 0 a4.0 4.0 0 1 0 -8.0 0"/><path fill="#06c" d="M790.530882 382.0 M782.530882 382.0 a4.0 4.0 0 1 0 8.0 0 a4.0 4.0 0 1 0 -8.0 0"/><path fill="#06c" d="M856.109069 372.346667 M848.109069 372.346667 a4.0 4.0 0 1 0 8.0 0 a4.0 4.0 0 1 0 -8.0 0"/><path fill="none" stroke="#c06" stroke-width="2" d="M196.327206 97.226667 L524.218137 348.213333 L852.109069 53.786667 L917.687255 353.04 L1016.054534 140.666667 L1114.421814 102.053333"/><path fill="#c06" d="M200.327206 97.226667 M192.327206 97.226667 a4.0 4.0 0 1 0 8.0 0 a4.0 4.0 0 1 0 -8.0 0"/><path fill="#c06" d="M528.218137 348.213333 M520.218137 348.213333 a4.0 4.0 0 1 0 8.0 0 a4.0 4.0 0 1 0 -8.0 0"/><path fill="#c06" d="M856.109069 53.786667 M848.109069 53.786667 a4.0 4.0 0 1 0 8.0 0 a4.0 4.0 0 1 0 -8.0 0"/><path fill="#c06" d="M921.687255 353.04 M913.687255 353.04 a4.0 4.0 0 1 0 8.0 0 a4.0 4.0 0 1 0 -8.0 0"/><path fill="#c06" d="M1020.054534 140.666667 M1012.054534 140.666667 a4.0 4.0 0 1 0 8.0 0 a4.0 4.0 0 1 0 -8.0 0"/><path fill="#c06" d="M1118.421814 102.053333 M1110.421814 102.053333 a4.0 4.0 0 1 0 8.0 0 a4.0 4.0 0 1 0 -8.0 0"/><path fill="#06c" d="M99.070833 402.4 M89.070833 402.4 a5.0 5.0 0 1 0 10.0 0 a5.0 5.0 0 1 0 -10.0 0"/><text x="105.571" y="407.4" fill="#333" font-family="Arial,Helvetica,'Helvetica Neue',sans-serif" font-size="14.667">Series A</text><path fill="#c06" d="M202.911458 402.4 M192.911458 402.4 a5.0 5.0 0 1 0 10.0 0 a5.0 5.0 0 1 0 -10.0 0"/><text x="209.411" y="407.4" fill="#333" font-family="Arial,Helvetica,'Helvetica Neue',sans-serif" font-size="14.667">Series B</text></svg>