<svg xmlns="http://www.w3.org/2000/svg" width="1200" height="480" viewBox="0 0 1200 480"><rect width="1200" height="480" fill="#fff"/><path fill="none" stroke="#333" stroke-width="1.333" d="M65.170833 20.0 L65.170833 430.266667"/><path fill="none" stroke="#333" stroke-width="1.333" d="M65.170833 430.266667 L70.504167 430.266667"/><path fill="none" stroke="#333" stroke-width="1.333" d="M65.170833 381.425397 L70.504167 381.425397"/><path fill="none" stroke="#333" stroke-width="1.333" d="M65.170833 332.584127 L70.504167 332.584127"/><path fill="none" stroke="#333" stroke-width="1.333" d="M65.170833 283.742857 L70.504167 283.742857"/><path fill="none" stroke="#333" stroke-width="1.333" d="M65.170833 234.901587 L70.504167 234.901587"/><path fill="none" stroke="#333" stroke-width="1.333" d="M65.170833 186.060317 L70.504167 186.060317"/><path fill="none" stroke="#333" stroke-width="1.333" d="M65.170833 137.219048 L70.504167 137.219048"/><path fill="none" stroke="#333" stroke-width="1.333" d="M65.170833 88.377778 L70.504167 88.377778"/><path fill="none" stroke="#333" stroke-width="1.333" d="M65.170833 39.536508 L70.504167 39.536508"/><text x="20" y="435.267" fill="#333" font-family="Arial,Helvetica,'Helvetica Neue',sans-serif" font-size="14.667">-10.0</text><text x="28.156" y="386.425" fill="#333" font-family="Arial,Helvetica,'Helvetica Neue',sans-serif" font-size="14.667">-5.0</text><text x="33.047" y="337.584" fill="#333" font-family="Arial,Helvetica,'Helvetica Neue',sans-serif" font-size="14.667">0.0</text><text x="33.047" y="288.743" fill="#333" font-family="Arial,Helvetica,'Helvetica Neue',sans-serif" font-size="14.667">5.0</text><text x="24.891" y="239.902" fill="#333" font-family="Arial,Helvetica,'Helvetica Neue',sans-serif" font-size="14.667">10.0</text><text x="24.891" y="191.06" fill="#333" font-family="Arial,Helvetica,'Helvetica Neue',sans-serif" font-size="14.667">15.0</text><text x="24.891" y="142.219" fill="#333" font-family="Arial,Helvetica,'Helvetica Neue',sans-serif" font-size="14.667">20.0</text><text x="24.891" y="93.378" fill="#333" font-family="Arial,Helvetica,'Helvetica Neue',sans-serif" font-size="14.667">25.0</text><text x="24.891" y="44.537" fill="#333" font-family="Arial,Helvetica,'Helvetica Neue',sans-serif" font-size="14.667">30.0</text><path fill="none" stroke="#333" stroke-width="1.333" d="M65.170833 430.266667 L1180.0 430.266667"/><path fill="none" stroke="#333" stroke-width="1.333" d="M119.998495 430.266667 L119.998495 424.933333"/><path fill="none" stroke="#333" stroke-width="1.333" d="M211.377932 430.266667 L211.377932 424.933333"/><path fill="none" stroke="#333" stroke-width="1.333" d="M302.757369 430.266667 L302.757369 424.933333"/><path fill="none" stroke="#333" stroke-width="1.333" d="M394.136806 430.266667 L394.136806 424.933333"/><path fill="none" stroke="#333" stroke-width="1.333" d="M485.516243 430.266667 L485.516243 424.933333"/><path fill="none" stroke="#333" stroke-width="1.333" d="M576.89568 430.266667 L576.89568 424.933333"/><path fill="none" stroke="#333" stroke-width="1.333" d="M668.275118 430.266667 L668.275118 424.933333"/><path fill="none" stroke="#333" stroke-width="1.333" d="M759.654555 430.266667 L759.654555 424.933333"/><path fill="none" stroke="#333" stroke-width="1.333" d="M851.033992 430.266667 L851.033992 424.933333"/><path fill="none" stroke="#333" stroke-width="1.333" d="M942.413429 430.266667 L942.413429 424.933333"/><path fill="none" stroke="#333" stroke-width="1.333" d="M1033.792866 430.266667 L1033.792866 424.933333"/><path fill="none" stroke="#333" stroke-width="1.333" d="M1125.172303 430.266667 L1125.172303 424.933333"/><text x="108.17" y="456" fill="#333" font-family="Arial,Helvetica,'Helvetica Neue',sans-serif" font-size="14.667">Jan</text><text x="198.737" y="456" fill="#333" font-family="Arial,Helvetica,'Helvetica Neue',sans-serif" font-size="14.667">Feb</text><text x="290.125" y="456" fill="#333" font-family="Arial,Helvetica,'Helvetica Neue',sans-serif" font-size="14.667">Mar</text><text x="382.723" y="456" fill="#333" font-family="Arial,Helvetica,'Helvetica Neue',sans-serif" font-size="14.667">Apr</text><text x="471.657" y="456" fill="#333" font-family="Arial,Helvetica,'Helvetica Neue',sans-serif" font-size="14.667">May</text><text x="565.068" y="456" fill="#333" font-family="Arial,Helvetica,'Helvetica Neue',sans-serif" font-size="14.667">Jun</text><text x="658.892" y="456" fill="#333" font-family="Arial,Helvetica,'Helvetica Neue',sans-serif" font-size="14.667">Jul</text><text x="746.608" y="456" fill="#333" font-family="Arial,Helvetica,'Helvetica Neue',sans-serif" font-size="14.667">Aug</text><text x="837.987" y="456" fill="#333" font-family="Arial,Helvetica,'Helvetica Neue',sans-serif" font-size="14.667">Sep</text><text x="930.999" y="456" fill="#333" font-family="Arial,Helvetica,'Helvetica Neue',sans-serif" font-size="14.667">Oct</text><text x="1020.746" y="456" fill="#333" font-family="Arial,Helvetica,'Helvetica Neue',sans-serif" font-size="14.667">Nov</text><text x="1112.125" y="456" fill="#333" font-family="Arial,Helvetica,'Helvetica Neue',sans-serif" font-size="14.667">Dec</text><path fill="none" stroke="#06c" stroke-width="2" d="M119.998495 294.487937 L211.377932 291.55746 L302.757369 276.905079 L394.136806 249.553968 L485.516243 216.341905 L576.89568 184.106667 L668.275118 166.52381 L759.654555 170.431111 L851.033992 193.874921 L942.413429 231.971111 L1033.792866 268.113651 L1125.172303 285.696508"/><path fill="#06c" d="M123.998495 294.487937 M115.998495 294.487937 a4.0 4.0 0 1 0 8.0 0 a4.0 4.0 0 1 0 -8.0 0"/><path fill="#06c" d="M215.377932 291.55746 M207.377932 291.55746 a4.0 4.0 0 1 0 8.0 0 a4.0 4.0 0 1 0 -8.0 0"/><path fill="#06c" d="M306.757369 276.905079 M298.757369 276.905079 a4.0 4.0 0 1 0 8.0 0 a4.0 4.0 0 1 0 -8.0 0"/><path fill="#06c" d="M398.136806 249.553968 M390.136806 249.553968 a4.0 4.0 0 1 0 8.0 0 a4.0 4.0 0 1 0 -8.0 0"/><path fill="#06c" d="M489.516243 216.341905 M481.516243 216.341905 a4.0 4.0 0 1 0 8.0 0 a4.0 4.0 0 1 0 -8.0 0"/><path fill="#06c" d="M580.89568 184.106667 M572.89568 184.106667 a4.0 4.0 0 1 0 8.0 0 a4.0 4.0 0 1 0 -8.0 0"/><path fill="#06c" d="M672.275118 166.52381 M664.275118 166.52381 a4.0 4.0 0 1 0 8.0 0 a4.0 4.0 0 1 0 -8.0 0"/><path fill="#06c" d="M763.654555 170.431111 M755.654555 170.431111 a4.0 4.0 0 1 0 8.0 0 a4.0 4.0 0 1 0 -8.0 0"/><path fill="#06c" d="M855.033992 193.874921 M847.033992 193.874921 a4.0 4.0 0 1 0 8.0 0 a4.0 4.0 0 1 0 -8.0 0"/><path fill="#06c" d="M946.413429 231.971111 M938.413429 231.971111 a4.0 4.0 0 1 0 8.0 0 a4.0 4.0 0 1 0 -8.0 0"/><path fill="#06c" d="M1037.792866 268.113651 M1029.792866 268.113651 a4.0 4.0 0 1 0 8.0 0 a4.0 4.0 0 1 0 -8.0 0"/><path fill="#06c" d="M1129.172303 285.696508 M1121.172303 285.696508 a4.0 4.0 0 1 0 8.0 0 a4.0 4.0 0 1 0 -8.0 0"/><text x="101.569" y="284.621" fill="#000" font-family="Arial,Helvetica,'Helvetica Neue',sans-serif" font-size="14.667">3.9°C</text><text x="192.948" y="281.691" fill="#000" font-family="Arial,Helvetica,'Helvetica Neue',sans-serif" font-size="14.667">4.2°C</text><text x="284.328" y="267.038" fill="#000" font-family="Arial,Helvetica,'Helvetica Neue',sans-serif" font-size="14.667">5.7°C</text><text x="375.707" y="239.687" fill="#000" font-family="Arial,Helvetica,'Helvetica Neue',sans-serif" font-size="14.667">8.5°C</text><text x="463.555" y="206.475" fill="#000" font-family="Arial,Helvetica,'Helvetica Neue',sans-serif" font-size="14.667">11.9°C</text><text x="554.388" y="174.24" fill="#000" font-family="Arial,Helvetica,'Helvetica Neue',sans-serif" font-size="14.667">15.2°C</text><text x="645.767" y="156.657" fill="#000" font-family="Arial,Helvetica,'Helvetica Neue',sans-serif" font-size="14.667">17.0°C</text><text x="737.147" y="160.564" fill="#000" font-family="Arial,Helvetica,'Helvetica Neue',sans-serif" font-size="14.667">16.6°C</text><text x="828.526" y="184.008" fill="#000" font-family="Arial,Helvetica,'Helvetica Neue',sans-serif" font-size="14.667">14.2°C</text><text x="919.906" y="222.104" fill="#000" font-family="Arial,Helvetica,'Helvetica Neue',sans-serif" font-size="14.667">10.3°C</text><text x="1015.363" y="258.247" fill="#000" font-family="Arial,Helvetica,'Helvetica Neue',sans-serif" font-size="14.667">6.6°C</text><text x="1106.743" y="275.83" fill="#000" font-family="Arial,Helvetica,'Helvetica Neue',sans-serif" font-size="14.667">4.8°C</text><path fill="#4572a7" d="M99.070833 402.4 M89.070833 402.4 a5.0 5.0 0 1 0 10.0 0 a5.0 5.0 0 1 0 -10.0 0"/><text x="105.571" y="407.4" fill="#333" font-family="Arial,Helvetica,'Helvetica Neue',sans-serif" font-size="14.667">London</text></svg>