<svg xmlns="http://www.w3.org/2000/svg" width="1200" height="480" viewBox="0 0 1200 480"><rect width="1200" height="480" fill="#fff"/><path fill="none" stroke="#333" stroke-width="1.333" d="M60.280208 49.733333 L60.280208 430.266667"/><path fill="none" stroke="#333" stroke-width="1.333" d="M60.280208 430.266667 L65.613542 430.266667"/><path fill="none" stroke="#333" stroke-width="1.333" d="M60.280208 375.904762 L65.613542 375.904762"/><path fill="none" stroke="#333" stroke-width="1.333" d="M60.280208 321.542857 L65.613542 321.542857"/><path fill="none" stroke="#333" stroke-width="1.333" d="M60.280208 267.180952 L65.613542 267.180952"/><path fill="none" stroke="#333" stroke-width="1.333" d="M60.280208 212.819048 L65.613542 212.819048"/><path fill="none" stroke="#333" stroke-width="1.333" d="M60.280208 158.457143 L65.613542 158.457143"/><path fill="none" stroke="#333" stroke-width="1.333" d="M60.280208 104.095238 L65.613542 104.095238"/><path fill="none" stroke="#333" stroke-width="1.333" d="M60.280208 49.733333 L65.613542 49.733333"/><text x="23.266" y="435.267" fill="#333" font-family="Arial,Helvetica,'Helvetica Neue',sans-serif" font-size="14.667">-5.0</text><text x="28.156" y="380.905" fill="#333" font-family="Arial,Helvetica,'Helvetica Neue',sans-serif" font-size="14.667">0.0</text><text x="28.156" y="326.543" fill="#333" font-family="Arial,Helvetica,'Helvetica Neue',sans-serif" font-size="14.667">5.0</text><text x="20" y="272.181" fill="#333" font-family="Arial,Helvetica,'Helvetica Neue',sans-serif" font-size="14.667">10.0</text><text x="20" y="217.819" fill="#333" font-family="Arial,Helvetica,'Helvetica Neue',sans-serif" font-size="14.667">15.0</text><text x="20" y="163.457" fill="#333" font-family="Arial,Helvetica,'Helvetica Neue',sans-serif" font-size="14.667">20.0</text><text x="20" y="109.095" fill="#333" font-family="Arial,Helvetica,'Helvetica Neue',sans-serif" font-size="14.667">25.0</text><text x="20" y="54.733" fill="#333" font-family="Arial,Helvetica,'Helvetica Neue',sans-serif" font-size="14.667">30.0</text><path fill="none" stroke="#333" stroke-width="1.333" d="M1134.829167 49.733333 L1134.829167 430.266667"/><path fill="none" stroke="#333" stroke-width="1.333" d="M1134.829167 430.266667 L1129.495833 430.266667"/><path fill="none" stroke="#333" stroke-width="1.333" d="M1134.829167 387.985185 L1129.495833 387.985185"/><path fill="none" stroke="#333" stroke-width="1.333" d="M1134.829167 345.703704 L1129.495833 345.703704"/><path fill="none" stroke="#333" stroke-width="1.333" d="M1134.829167 303.422222 L1129.495833 303.422222"/><path fill="none" stroke="#333" stroke-width="1.333" d="M1134.829167 261.140741 L1129.495833 261.140741"/><path fill="none" stroke="#333" stroke-width="1.333" d="M1134.829167 218.859259 L1129.495833 218.859259"/><path fill="none" stroke="#333" stroke-width="1.333" d="M1134.829167 176.577778 L1129.495833 176.577778"/><path fill="none" stroke="#333" stroke-width="1.333" d="M1134.829167 134.296296 L1129.495833 134.296296"/><path fill="none" stroke="#333" stroke-width="1.333" d="M1134.829167 92.014815 L1129.495833 92.014815"/><path fill="none" stroke="#333" stroke-width="1.333" d="M1134.829167 49.733333 L1129.495833 49.733333"/><text x="1146.563" y="435.267" fill="#333" font-family="Arial,Helvetica,'Helvetica Neue',sans-serif" font-size="14.667">-15.0</text><text x="1146.563" y="392.985" fill="#333" font-family="Arial,Helvetica,'Helvetica Neue',sans-serif" font-size="14.667">-10.0</text><text x="1146.563" y="350.704" fill="#333" font-family="Arial,Helvetica,'Helvetica Neue',sans-serif" font-size="14.667">-5.0</text><text x="1146.563" y="308.422" fill="#333" font-family="Arial,Helvetica,'Helvetica Neue',sans-serif" font-size="14.667">0.0</text><text x="1146.563" y="266.141" fill="#333" font-family="Arial,Helvetica,'Helvetica Neue',sans-serif" font-size="14.667">5.0</text><text x="1146.563" y="223.859" fill="#333" font-family="Arial,Helvetica,'Helvetica Neue',sans-serif" font-size="14.667">10.0</text><text x="1146.563" y="181.578" fill="#333" font-family="Arial,Helvetica,'Helvetica Neue',sans-serif" font-size="14.667">15.0</text><text x="1146.563" y="139.296" fill="#333" font-family="Arial,Helvetica,'Helvetica Neue',sans-serif" font-size="14.667">20.0</text><text x="1146.563" y="97.015" fill="#333" font-family="Arial,Helvetica,'Helvetica Neue',sans-serif" font-size="14.667">25.0</text><text x="1146.563" y="54.733" fill="#333" font-family="Arial,Helvetica,'Helvetica Neue',sans-serif" font-size="14.667">30.0</text><path fill="none" stroke="#333" stroke-width="1.333" d="M60.280208 430.266667 L1134.829167 430.266667"/><path fill="none" stroke="#333" stroke-width="1.333" d="M69.087986 430.266667 L69.087986 424.933333"/><path fill="none" stroke="#333" stroke-width="1.333" d="M69.087986 430.266667 L69.087986 424.933333"/><path fill="none" stroke="#333" stroke-width="1.333" d="M157.165767 430.266667 L157.165767 424.933333"/><path fill="none" stroke="#333" stroke-width="1.333" d="M157.165767 430.266667 L157.165767 424.933333"/><path fill="none" stroke="#333" stroke-width="1.333" d="M245.243547 430.266667 L245.243547 424.933333"/><path fill="none" stroke="#333" stroke-width="1.333" d="M245.243547 430.266667 L245.243547 424.933333"/><path fill="none" stroke="#333" stroke-width="1.333" d="M333.321328 430.266667 L333.321328 424.933333"/><path fill="none" stroke="#333" stroke-width="1.333" d="M333.321328 430.266667 L333.321328 424.933333"/><path fill="none" stroke="#333" stroke-width="1.333" d="M421.399109 430.266667 L421.399109 424.933333"/><path fill="none" stroke="#333" stroke-width="1.333" d="M421.399109 430.266667 L421.399109 424.933333"/><path fill="none" stroke="#333" stroke-width="1.333" d="M509.47689 430.266667 L509.47689 424.933333"/><path fill="none" stroke="#333" stroke-width="1.333" d="M509.47689 430.266667 L509.47689 424.933333"/><path fill="none" stroke="#333" stroke-width="1.333" d="M597.55467 430.266667 L597.55467 424.933333"/><path fill="none" stroke="#333" stroke-width="1.333" d="M597.55467 430.266667 L597.55467 424.933333"/><path fill="none" stroke="#333" stroke-width="1.333" d="M685.632451 430.266667 L685.632451 424.933333"/><path fill="none" stroke="#333" stroke-width="1.333" d="M685.632451 430.266667 L685.632451 424.933333"/><path fill="none" stroke="#333" stroke-width="1.333" d="M773.710232 430.266667 L773.710232 424.933333"/><path fill="none" stroke="#333" stroke-width="1.333" d="M773.710232 430.266667 L773.710232 424.933333"/><path fill="none" stroke="#333" stroke-width="1.333" d="M861.788013 430.266667 L861.788013 424.933333"/><path fill="none" stroke="#333" stroke-width="1.333" d="M861.788013 430.266667 L861.788013 424.933333"/><path fill="none" stroke="#333" stroke-width="1.333" d="M949.865793 430.266667 L949.865793 424.933333"/><path fill="none" stroke="#333" stroke-width="1.333" d="M949.865793 430.266667 L949.865793 424.933333"/><path fill="none" stroke="#333" stroke-width="1.333" d="M1037.943574 430.266667 L1037.943574 424.933333"/><path fill="none" stroke="#333" stroke-width="1.333" d="M1037.943574 430.266667 L1037.943574 424.933333"/><path fill="none" stroke="#333" stroke-width="1.333" d="M1126.021355 430.266667 L1126.021355 424.933333"/><text x="101.299" y="456" fill="#333" font-family="Arial,Helvetica,'Helvetica Neue',sans-serif" font-size="14.667">Jan</text><text x="188.564" y="456" fill="#333" font-family="Arial,Helvetica,'Helvetica Neue',sans-serif" font-size="14.667">Feb</text><text x="276.65" y="456" fill="#333" font-family="Arial,Helvetica,'Helvetica Neue',sans-serif" font-size="14.667">Mar</text><text x="365.946" y="456" fill="#333" font-family="Arial,Helvetica,'Helvetica Neue',sans-serif" font-size="14.667">Apr</text><text x="451.579" y="456" fill="#333" font-family="Arial,Helvetica,'Helvetica Neue',sans-serif" font-size="14.667">May</text><text x="541.688" y="456" fill="#333" font-family="Arial,Helvetica,'Helvetica Neue',sans-serif" font-size="14.667">Jun</text><text x="632.211" y="456" fill="#333" font-family="Arial,Helvetica,'Helvetica Neue',sans-serif" font-size="14.667">Jul</text><text x="716.624" y="456" fill="#333" font-family="Arial,Helvetica,'Helvetica Neue',sans-serif" font-size="14.667">Aug</text><text x="804.702" y="456" fill="#333" font-family="Arial,Helvetica,'Helvetica Neue',sans-serif" font-size="14.667">Sep</text><text x="894.413" y="456" fill="#333" font-family="Arial,Helvetica,'Helvetica Neue',sans-serif" font-size="14.667">Oct</text><text x="980.858" y="456" fill="#333" font-family="Arial,Helvetica,'Helvetica Neue',sans-serif" font-size="14.667">Nov</text><text x="1068.936" y="456" fill="#333" font-family="Arial,Helvetica,'Helvetica Neue',sans-serif" font-size="14.667">Dec</text><path fill="none" stroke="#333" stroke-width="1.333" d="M60.280208 49.733333 L1134.829167 49.733333"/><path fill="none" stroke="#333" stroke-width="1.333" d="M113.126876 49.733333 L113.126876 55.066667"/><path fill="none" stroke="#333" stroke-width="1.333" d="M201.204657 49.733333 L201.204657 55.066667"/><path fill="none" stroke="#333" stroke-width="1.333" d="M289.282438 49.733333 L289.282438 55.066667"/><path fill="none" stroke="#333" stroke-width="1.333" d="M377.360219 49.733333 L377.360219 55.066667"/><path fill="none" stroke="#333" stroke-width="1.333" d="M465.437999 49.733333 L465.437999 55.066667"/><path fill="none" stroke="#333" stroke-width="1.333" d="M553.51578 49.733333 L553.51578 55.066667"/><path fill="none" stroke="#333" stroke-width="1.333" d="M641.593561 49.733333 L641.593561 55.066667"/><path fill="none" stroke="#333" stroke-width="1.333" d="M729.671342 49.733333 L729.671342 55.066667"/><path fill="none" stroke="#333" stroke-width="1.333" d="M817.749122 49.733333 L817.749122 55.066667"/><path fill="none" stroke="#333" stroke-width="1.333" d="M905.826903 49.733333 L905.826903 55.066667"/><path fill="none" stroke="#333" stroke-width="1.333" d="M993.904684 49.733333 L993.904684 55.066667"/><path fill="none" stroke="#333" stroke-width="1.333" d="M1081.982465 49.733333 L1081.982465 55.066667"/><text x="101.299" y="34" fill="#333" font-family="Arial,Helvetica,'Helvetica Neue',sans-serif" font-size="14.667">Jan</text><text x="188.564" y="34" fill="#333" font-family="Arial,Helvetica,'Helvetica Neue',sans-serif" font-size="14.667">Feb</text><text x="276.65" y="34" fill="#333" font-family="Arial,Helvetica,'Helvetica Neue',sans-serif" font-size="14.667">Mar</text><text x="365.946" y="34" fill="#333" font-family="Arial,Helvetica,'Helvetica Neue',sans-serif" font-size="14.667">Apr</text><text x="451.579" y="34" fill="#333" font-family="Arial,Helvetica,'Helvetica Neue',sans-serif" font-size="14.667">May</text><text x="541.688" y="34" fill="#333" font-family="Arial,Helvetica,'Helvetica Neue',sans-serif" font-size="14.667">Jun</text><text x="632.211" y="34" fill="#333" font-family="Arial,Helvetica,'Helvetica Neue',sans-serif" font-size="14.667">Jul</text><text x="716.624" y="34" fill="#333" font-family="Arial,Helvetica,'Helvetica Neue',sans-serif" font-size="14.667">Aug</text><text x="804.702" y="34" fill="#333" font-family="Arial,Helvetica,'Helvetica Neue',sans-serif" font-size="14.667">Sep</text><text x="894.413" y="34" fill="#333" font-family="Arial,Helvetica,'Helvetica Neue',sans-serif" font-size="14.667">Oct</text><text x="980.858" y="34" fill="#333" font-family="Arial,Helvetica,'Helvetica Neue',sans-serif" font-size="14.667">Nov</text><text x="1068.936" y="34" fill="#333" font-family="Arial,Helvetica,'Helvetica Neue',sans-serif" font-size="14.667">Dec</text><path fill="none" stroke="#06c" stroke-width="2" d="M113.126876 333.502476 L201.204657 330.240762 L289.282438 313.93219 L377.360219 283.489524 L465.437999 246.523429 L553.51578 210.644571 L641.593561 191.074286 L729.671342 195.423238 L817.749122 221.516952 L905.826903 263.919238 L993.904684 304.147048 L1081.982465 323.717333"/><path fill="none" stroke="#c06" stroke-width="2" d="M113.126876 337.247407 L201.204657 315.261037 L289.282438 257.758222 L377.360219 189.262222 L465.437999 135.141926 L553.51578 97.934222 L641.593561 81.02163 L729.671342 92.860444 L817.749122 135.141926 L905.826903 192.644741 L993.904684 263.67763 L1081.982465 318.643556"/></svg>