<svg xmlns="http://www.w3.org/2000/svg" width="1200" height="480" viewBox="0 0 1200 480"><rect width="1200" height="480" fill="#fff"/><path fill="none" stroke="#333" stroke-width="1.333" d="M60.280208 49.733333 L60.280208 430.266667"/><path fill="none" stroke="#333" stroke-width="1.333" d="M60.280208 430.266667 L65.613542 430.266667"/><path fill="none" stroke="#333" stroke-width="1.333" d="M60.280208 366.844444 L65.613542 366.844444"/><path fill="none" stroke="#333" stroke-width="1.333" d="M60.280208 303.422222 L65.613542 303.422222"/><path fill="none" stroke="#333" stroke-width="1.333" d="M60.280208 240.0 L65.613542 240.0"/><path fill="none" stroke="#333" stroke-width="1.333" d="M60.280208 176.577778 L65.613542 176.577778"/><path fill="none" stroke="#333" stroke-width="1.333" d="M60.280208 113.155556 L65.613542 113.155556"/><path fill="none" stroke="#333" stroke-width="1.333" d="M60.280208 49.733333 L65.613542 49.733333"/><text x="28.156" y="435.267" fill="#333" font-family="Arial,Helvetica,'Helvetica Neue',sans-serif" font-size="14.667">0.0</text><text x="28.156" y="371.844" fill="#333" font-family="Arial,Helvetica,'Helvetica Neue',sans-serif" font-size="14.667">5.0</text><text x="20" y="308.422" fill="#333" font-family="Arial,Helvetica,'Helvetica Neue',sans-serif" font-size="14.667">10.0</text><text x="20" y="245" fill="#333" font-family="Arial,Helvetica,'Helvetica Neue',sans-serif" font-size="14.667">15.0</text><text x="20" y="181.578" fill="#333" font-family="Arial,Helvetica,'Helvetica Neue',sans-serif" font-size="14.667">20.0</text><text x="20" y="118.156" fill="#333" font-family="Arial,Helvetica,'Helvetica Neue',sans-serif" font-size="14.667">25.0</text><text x="20" y="54.733" fill="#333" font-family="Arial,Helvetica,'Helvetica Neue',sans-serif" font-size="14.667">30.0</text><path fill="none" stroke="#333" stroke-width="1.333" d="M1139.719792 49.733333 L1139.719792 430.266667"/><path fill="none" stroke="#333" stroke-width="1.333" d="M1139.719792 430.266667 L1134.386458 430.266667"/><path fill="none" stroke="#333" stroke-width="1.333" d="M1139.719792 366.844444 L1134.386458 366.844444"/><path fill="none" stroke="#333" stroke-width="1.333" d="M1139.719792 303.422222 L1134.386458 303.422222"/><path fill="none" stroke="#333" stroke-width="1.333" d="M1139.719792 240.0 L1134.386458 240.0"/><path fill="none" stroke="#333" stroke-width="1.333" d="M1139.719792 176.577778 L1134.386458 176.577778"/><path fill="none" stroke="#333" stroke-width="1.333" d="M1139.719792 113.155556 L1134.386458 113.155556"/><path fill="none" stroke="#333" stroke-width="1.333" d="M1139.719792 49.733333 L1134.386458 49.733333"/><text x="1151.453" y="435.267" fill="#333" font-family="Arial,Helvetica,'Helvetica Neue',sans-serif" font-size="14.667">0.0</text><text x="1151.453" y="371.844" fill="#333" font-family="Arial,Helvetica,'Helvetica Neue',sans-serif" font-size="14.667">5.0</text><text x="1151.453" y="308.422" fill="#333" font-family="Arial,Helvetica,'Helvetica Neue',sans-serif" font-size="14.667">10.0</text><text x="1151.453" y="245" fill="#333" font-family="Arial,Helvetica,'Helvetica Neue',sans-serif" font-size="14.667">15.0</text><text x="1151.453" y="181.578" fill="#333" font-family="Arial,Helvetica,'Helvetica Neue',sans-serif" font-size="14.667">20.0</text><text x="1151.453" y="118.156" fill="#333" font-family="Arial,Helvetica,'Helvetica Neue',sans-serif" font-size="14.667">25.0</text><text x="1151.453" y="54.733" fill="#333" font-family="Arial,Helvetica,'Helvetica Neue',sans-serif" font-size="14.667">30.0</text><path fill="none" stroke="#333" stroke-width="1.333" d="M60.280208 430.266667 L1139.719792 430.266667"/><path fill="none" stroke="#333" stroke-width="1.333" d="M113.367399 430.266667 L113.367399 424.933333"/><path fill="none" stroke="#333" stroke-width="1.333" d="M201.84605 430.266667 L201.84605 424.933333"/><path fill="none" stroke="#333" stroke-width="1.333" d="M290.324702 430.266667 L290.324702 424.933333"/><path fill="none" stroke="#333" stroke-width="1.333" d="M378.803354 430.266667 L378.803354 424.933333"/><path fill="none" stroke="#333" stroke-width="1.333" d="M467.282005 430.266667 L467.282005 424.933333"/><path fill="none" stroke="#333" stroke-width="1.333" d="M555.760657 430.266667 L555.760657 424.933333"/><path fill="none" stroke="#333" stroke-width="1.333" d="M644.239309 430.266667 L644.239309 424.933333"/><path fill="none" stroke="#333" stroke-width="1.333" d="M732.71796 430.266667 L732.71796 424.933333"/><path fill="none" stroke="#333" stroke-width="1.333" d="M821.196612 430.266667 L821.196612 424.933333"/><path fill="none" stroke="#333" stroke-width="1.333" d="M909.675264 430.266667 L909.675264 424.933333"/><path fill="none" stroke="#333" stroke-width="1.333" d="M998.153915 430.266667 L998.153915 424.933333"/><path fill="none" stroke="#333" stroke-width="1.333" d="M1086.632567 430.266667 L1086.632567 424.933333"/><text x="101.539" y="456" fill="#333" font-family="Arial,Helvetica,'Helvetica Neue',sans-serif" font-size="14.667">Jan</text><text x="189.205" y="456" fill="#333" font-family="Arial,Helvetica,'Helvetica Neue',sans-serif" font-size="14.667">Feb</text><text x="277.692" y="456" fill="#333" font-family="Arial,Helvetica,'Helvetica Neue',sans-serif" font-size="14.667">Mar</text><text x="367.389" y="456" fill="#333" font-family="Arial,Helvetica,'Helvetica Neue',sans-serif" font-size="14.667">Apr</text><text x="453.423" y="456" fill="#333" font-family="Arial,Helvetica,'Helvetica Neue',sans-serif" font-size="14.667">May</text><text x="543.933" y="456" fill="#333" font-family="Arial,Helvetica,'Helvetica Neue',sans-serif" font-size="14.667">Jun</text><text x="634.856" y="456" fill="#333" font-family="Arial,Helvetica,'Helvetica Neue',sans-serif" font-size="14.667">Jul</text><text x="719.671" y="456" fill="#333" font-family="Arial,Helvetica,'Helvetica Neue',sans-serif" font-size="14.667">Aug</text><text x="808.15" y="456" fill="#333" font-family="Arial,Helvetica,'Helvetica Neue',sans-serif" font-size="14.667">Sep</text><text x="898.261" y="456" fill="#333" font-family="Arial,Helvetica,'Helvetica Neue',sans-serif" font-size="14.667">Oct</text><text x="985.107" y="456" fill="#333" font-family="Arial,Helvetica,'Helvetica Neue',sans-serif" font-size="14.667">Nov</text><text x="1073.586" y="456" fill="#333" font-family="Arial,Helvetica,'Helvetica Neue',sans-serif" font-size="14.667">Dec</text><path fill="none" stroke="#333" stroke-width="1.333" d="M60.280208 49.733333 L1139.719792 49.733333"/><path fill="none" stroke="#333" stroke-width="1.333" d="M113.367399 49.733333 L113.367399 55.066667"/><path fill="none" stroke="#333" stroke-width="1.333" d="M201.84605 49.733333 L201.84605 55.066667"/><path fill="none" stroke="#333" stroke-width="1.333" d="M290.324702 49.733333 L290.324702 55.066667"/><path fill="none" stroke="#333" stroke-width="1.333" d="M378.803354 49.733333 L378.803354 55.066667"/><path fill="none" stroke="#333" stroke-width="1.333" d="M467.282005 49.733333 L467.282005 55.066667"/><path fill="none" stroke="#333" stroke-width="1.333" d="M555.760657 49.733333 L555.760657 55.066667"/><path fill="none" stroke="#333" stroke-width="1.333" d="M644.239309 49.733333 L644.239309 55.066667"/><path fill="none" stroke="#333" stroke-width="1.333" d="M732.71796 49.733333 L732.71796 55.066667"/><path fill="none" stroke="#333" stroke-width="1.333" d="M821.196612 49.733333 L821.196612 55.066667"/><path fill="none" stroke="#333" stroke-width="1.333" d="M909.675264 49.733333 L909.675264 55.066667"/><path fill="none" stroke="#333" stroke-width="1.333" d="M998.153915 49.733333 L998.153915 55.066667"/><path fill="none" stroke="#333" stroke-width="1.333" d="M1086.632567 49.733333 L1086.632567 55.066667"/><text x="101.539" y="34" fill="#333" font-family="Arial,Helvetica,'Helvetica Neue',sans-serif" font-size="14.667">Jan</text><text x="189.205" y="34" fill="#333" font-family="Arial,Helvetica,'Helvetica Neue',sans-serif" font-size="14.667">Feb</text><text x="277.692" y="34" fill="#333" font-family="Arial,Helvetica,'Helvetica Neue',sans-serif" font-size="14.667">Mar</text><text x="367.389" y="34" fill="#333" font-family="Arial,Helvetica,'Helvetica Neue',sans-serif" font-size="14.667">Apr</text><text x="453.423" y="34" fill="#333" font-family="Arial,Helvetica,'Helvetica Neue',sans-serif" font-size="14.667">May</text><text x="543.933" y="34" fill="#333" font-family="Arial,Helvetica,'Helvetica Neue',sans-serif" font-size="14.667">Jun</text><text x="634.856" y="34" fill="#333" font-family="Arial,Helvetica,'Helvetica Neue',sans-serif" font-size="14.667">Jul</text><text x="719.671" y="34" fill="#333" font-family="Arial,Helvetica,'Helvetica Neue',sans-serif" font-size="14.667">Aug</text><text x="808.15" y="34" fill="#333" font-family="Arial,Helvetica,'Helvetica Neue',sans-serif" font-size="14.667">Sep</text><text x="898.261" y="34" fill="#333" font-family="Arial,Helvetica,'Helvetica Neue',sans-serif" font-size="14.667">Oct</text><text x="985.107" y="34" fill="#333" font-family="Arial,Helvetica,'Helvetica Neue',sans-serif" font-size="14.667">Nov</text><text x="1073.586" y="34" fill="#333" font-family="Arial,Helvetica,'Helvetica Neue',sans-serif" font-size="14.667">Dec</text><path fill="#4572a7" d="M87.945177 430.266667 L87.945177 380.797333 L138.789621 380.797333 L138.789621 430.266667"/><path fill="#4572a7" d="M176.423828 430.266667 L176.423828 376.992 L227.268273 376.992 L227.268273 430.266667"/><path fill="#4572a7" d="M264.90248 430.266667 L264.90248 357.965333 L315.746924 357.965333 L315.746924 430.266667"/><path fill="#4572a7" d="M353.381132 430.266667 L353.381132 322.448889 L404.225576 322.448889 L404.225576 430.266667"/><path fill="#4572a7" d="M441.859783 430.266667 L441.859783 279.321778 L492.704228 279.321778 L492.704228 430.266667"/><path fill="#4572a7" d="M530.338435 430.266667 L530.338435 237.463111 L581.182879 237.463111 L581.182879 430.266667"/><path fill="#4572a7" d="M618.817086 430.266667 L618.817086 214.631111 L669.661531 214.631111 L669.661531 430.266667"/><path fill="#4572a7" d="M707.295738 430.266667 L707.295738 219.704889 L758.140183 219.704889 L758.140183 430.266667"/><path fill="#4572a7" d="M795.77439 430.266667 L795.77439 250.147556 L846.618834 250.147556 L846.618834 430.266667"/><path fill="#4572a7" d="M884.253041 430.266667 L884.253041 299.616889 L935.097486 299.616889 L935.097486 430.266667"/><path fill="#4572a7" d="M972.731693 430.266667 L972.731693 346.549333 L1023.576137 346.549333 L1023.576137 430.266667"/><path fill="#4572a7" d="M1061.210345 430.266667 L1061.210345 369.381333 L1112.054789 369.381333 L1112.054789 430.266667"/><text x="94.938" y="367.997" fill="#000" font-family="Arial,Helvetica,'Helvetica Neue',sans-serif" font-size="14.667">3.9°C</text><text x="183.416" y="364.192" fill="#000" font-family="Arial,Helvetica,'Helvetica Neue',sans-serif" font-size="14.667">4.2°C</text><text x="271.895" y="345.165" fill="#000" font-family="Arial,Helvetica,'Helvetica Neue',sans-serif" font-size="14.667">5.7°C</text><text x="360.374" y="309.649" fill="#000" font-family="Arial,Helvetica,'Helvetica Neue',sans-serif" font-size="14.667">8.5°C</text><text x="445.321" y="266.522" fill="#000" font-family="Arial,Helvetica,'Helvetica Neue',sans-serif" font-size="14.667">11.9°C</text><text x="533.253" y="224.663" fill="#000" font-family="Arial,Helvetica,'Helvetica Neue',sans-serif" font-size="14.667">15.2°C</text><text x="621.731" y="201.831" fill="#000" font-family="Arial,Helvetica,'Helvetica Neue',sans-serif" font-size="14.667">17.0°C</text><text x="710.21" y="206.905" fill="#000" font-family="Arial,Helvetica,'Helvetica Neue',sans-serif" font-size="14.667">16.6°C</text><text x="798.689" y="237.348" fill="#000" font-family="Arial,Helvetica,'Helvetica Neue',sans-serif" font-size="14.667">14.2°C</text><text x="887.167" y="286.817" fill="#000" font-family="Arial,Helvetica,'Helvetica Neue',sans-serif" font-size="14.667">10.3°C</text><text x="979.724" y="333.749" fill="#000" font-family="Arial,Helvetica,'Helvetica Neue',sans-serif" font-size="14.667">6.6°C</text><text x="1068.203" y="356.581" fill="#000" font-family="Arial,Helvetica,'Helvetica Neue',sans-serif" font-size="14.667">4.8°C</text><path fill="#4572a7" d="M94.180208 77.6 M84.180208 77.6 a5.0 5.0 0 1 0 10.0 0 a5.0 5.0 0 1 0 -10.0 0"/><text x="100.68" y="82.6" fill="#333" font-family="Arial,Helvetica,'Helvetica Neue',sans-serif" font-size="14.667">London</text></svg>