<svg xmlns="http://www.w3.org/2000/svg" width="1280" height="480" viewBox="0 0 1280 480"><rect width="1280" height="480" fill="#fff"/><path fill="none" stroke="#333" stroke-width="1.333" d="M42.327083 430.266667 L1237.672917 430.266667"/><path fill="none" stroke="#333" stroke-width="1.333" d="M102.094375 430.266667 L102.094375 424.933333"/><path fill="none" stroke="#333" stroke-width="1.333" d="M221.628958 430.266667 L221.628958 424.933333"/><path fill="none" stroke="#333" stroke-width="1.333" d="M341.163542 430.266667 L341.163542 424.933333"/><path fill="none" stroke="#333" stroke-width="1.333" d="M460.698125 430.266667 L460.698125 424.933333"/><path fill="none" stroke="#333" stroke-width="1.333" d="M580.232708 430.266667 L580.232708 424.933333"/><path fill="none" stroke="#333" stroke-width="1.333" d="M699.767292 430.266667 L699.767292 424.933333"/><path fill="none" stroke="#333" stroke-width="1.333" d="M819.301875 430.266667 L819.301875 424.933333"/><path fill="none" stroke="#333" stroke-width="1.333" d="M938.836458 430.266667 L938.836458 424.933333"/><path fill="none" stroke="#333" stroke-width="1.333" d="M1058.371042 430.266667 L1058.371042 424.933333"/><path fill="none" stroke="#333" stroke-width="1.333" d="M1177.905625 430.266667 L1177.905625 424.933333"/><text x="85.376" y="456" fill="#333" font-family="Arial,Helvetica,'Helvetica Neue',sans-serif" font-size="14.667">-20.0</text><text x="204.91" y="456" fill="#333" font-family="Arial,Helvetica,'Helvetica Neue',sans-serif" font-size="14.667">-10.0</text><text x="330.968" y="456" fill="#333" font-family="Arial,Helvetica,'Helvetica Neue',sans-serif" font-size="14.667">0.0</text><text x="446.425" y="456" fill="#333" font-family="Arial,Helvetica,'Helvetica Neue',sans-serif" font-size="14.667">10.0</text><text x="565.959" y="456" fill="#333" font-family="Arial,Helvetica,'Helvetica Neue',sans-serif" font-size="14.667">20.0</text><text x="685.494" y="456" fill="#333" font-family="Arial,Helvetica,'Helvetica Neue',sans-serif" font-size="14.667">30.0</text><text x="805.028" y="456" fill="#333" font-family="Arial,Helvetica,'Helvetica Neue',sans-serif" font-size="14.667">40.0</text><text x="924.563" y="456" fill="#333" font-family="Arial,Helvetica,'Helvetica Neue',sans-serif" font-size="14.667">50.0</text><text x="1044.098" y="456" fill="#333" font-family="Arial,Helvetica,'Helvetica Neue',sans-serif" font-size="14.667">60.0</text><text x="1163.632" y="456" fill="#333" font-family="Arial,Helvetica,'Helvetica Neue',sans-serif" font-size="14.667">70.0</text><path fill="none" stroke="#333" stroke-width="1.333" d="M42.327083 49.733333 L42.327083 430.266667"/><path fill="none" stroke="#333" stroke-width="1.333" d="M42.327083 430.266667 L47.660417 430.266667"/><path fill="none" stroke="#333" stroke-width="1.333" d="M42.327083 430.266667 L47.660417 430.266667"/><path fill="none" stroke="#333" stroke-width="1.333" d="M42.327083 366.844444 L47.660417 366.844444"/><path fill="none" stroke="#333" stroke-width="1.333" d="M42.327083 366.844444 L47.660417 366.844444"/><path fill="none" stroke="#333" stroke-width="1.333" d="M42.327083 303.422222 L47.660417 303.422222"/><path fill="none" stroke="#333" stroke-width="1.333" d="M42.327083 303.422222 L47.660417 303.422222"/><path fill="none" stroke="#333" stroke-width="1.333" d="M42.327083 240.0 L47.660417 240.0"/><path fill="none" stroke="#333" stroke-width="1.333" d="M42.327083 240.0 L47.660417 240.0"/><path fill="none" stroke="#333" stroke-width="1.333" d="M42.327083 176.577778 L47.660417 176.577778"/><path fill="none" stroke="#333" stroke-width="1.333" d="M42.327083 176.577778 L47.660417 176.577778"/><path fill="none" stroke="#333" stroke-width="1.333" d="M42.327083 113.155556 L47.660417 113.155556"/><path fill="none" stroke="#333" stroke-width="1.333" d="M42.327083 113.155556 L47.660417 113.155556"/><path fill="none" stroke="#333" stroke-width="1.333" d="M42.327083 49.733333 L47.660417 49.733333"/><text x="20.813" y="403.556" fill="#333" font-family="Arial,Helvetica,'Helvetica Neue',sans-serif" font-size="14.667">A</text><text x="20.813" y="340.133" fill="#333" font-family="Arial,Helvetica,'Helvetica Neue',sans-serif" font-size="14.667">B</text><text x="20" y="276.711" fill="#333" font-family="Arial,Helvetica,'Helvetica Neue',sans-serif" font-size="14.667">C</text><text x="20" y="213.289" fill="#333" font-family="Arial,Helvetica,'Helvetica Neue',sans-serif" font-size="14.667">D</text><text x="20.813" y="149.867" fill="#333" font-family="Arial,Helvetica,'Helvetica Neue',sans-serif" font-size="14.667">E</text><text x="21.625" y="86.444" fill="#333" font-family="Arial,Helvetica,'Helvetica Neue',sans-serif" font-size="14.667">F</text><path fill="none" stroke="#333" stroke-width="1.333" d="M1237.672917 49.733333 L1237.672917 430.266667"/><path fill="none" stroke="#333" stroke-width="1.333" d="M1237.672917 430.266667 L1232.339583 430.266667"/><path fill="none" stroke="#333" stroke-width="1.333" d="M1237.672917 430.266667 L1232.339583 430.266667"/><path fill="none" stroke="#333" stroke-width="1.333" d="M1237.672917 366.844444 L1232.339583 366.844444"/><path fill="none" stroke="#333" stroke-width="1.333" d="M1237.672917 366.844444 L1232.339583 366.844444"/><path fill="none" stroke="#333" stroke-width="1.333" d="M1237.672917 303.422222 L1232.339583 303.422222"/><path fill="none" stroke="#333" stroke-width="1.333" d="M1237.672917 303.422222 L1232.339583 303.422222"/><path fill="none" stroke="#333" stroke-width="1.333" d="M1237.672917 240.0 L1232.339583 240.0"/><path fill="none" stroke="#333" stroke-width="1.333" d="M1237.672917 240.0 L1232.339583 240.0"/><path fill="none" stroke="#333" stroke-width="1.333" d="M1237.672917 176.577778 L1232.339583 176.577778"/><path fill="none" stroke="#333" stroke-width="1.333" d="M1237.672917 176.577778 L1232.339583 176.577778"/><path fill="none" stroke="#333" stroke-width="1.333" d="M1237.672917 113.155556 L1232.339583 113.155556"/><path fill="none" stroke="#333" stroke-width="1.333" d="M1237.672917 113.155556 L1232.339583 113.155556"/><path fill="none" stroke="#333" stroke-width="1.333" d="M1237.672917 49.733333 L1232.339583 49.733333"/><text x="1249.406" y="403.556" fill="#333" font-family="Arial,Helvetica,'Helvetica Neue',sans-serif" font-size="14.667">A</text><text x="1249.406" y="340.133" fill="#333" font-family="Arial,Helvetica,'Helvetica Neue',sans-serif" font-size="14.667">B</text><text x="1249.406" y="276.711" fill="#333" font-family="Arial,Helvetica,'Helvetica Neue',sans-serif" font-size="14.667">C</text><text x="1249.406" y="213.289" fill="#333" font-family="Arial,Helvetica,'Helvetica Neue',sans-serif" font-size="14.667">D</text><text x="1249.406" y="149.867" fill="#333" font-family="Arial,Helvetica,'Helvetica Neue',sans-serif" font-size="14.667">E</text><text x="1249.406" y="86.444" fill="#333" font-family="Arial,Helvetica,'Helvetica Neue',sans-serif" font-size="14.667">F</text><path fill="none" stroke="#333" stroke-width="1.333" d="M42.327083 49.733333 L1237.672917 49.733333"/><path fill="none" stroke="#333" stroke-width="1.333" d="M102.094375 49.733333 L102.094375 55.066667"/><path fill="none" stroke="#333" stroke-width="1.333" d="M221.628958 49.733333 L221.628958 55.066667"/><path fill="none" stroke="#333" stroke-width="1.333" d="M341.163542 49.733333 L341.163542 55.066667"/><path fill="none" stroke="#333" stroke-width="1.333" d="M460.698125 49.733333 L460.698125 55.066667"/><path fill="none" stroke="#333" stroke-width="1.333" d="M580.232708 49.733333 L580.232708 55.066667"/><path fill="none" stroke="#333" stroke-width="1.333" d="M699.767292 49.733333 L699.767292 55.066667"/><path fill="none" stroke="#333" stroke-width="1.333" d="M819.301875 49.733333 L819.301875 55.066667"/><path fill="none" stroke="#333" stroke-width="1.333" d="M938.836458 49.733333 L938.836458 55.066667"/><path fill="none" stroke="#333" stroke-width="1.333" d="M1058.371042 49.733333 L1058.371042 55.066667"/><path fill="none" stroke="#333" stroke-width="1.333" d="M1177.905625 49.733333 L1177.905625 55.066667"/><text x="85.376" y="34" fill="#333" font-family="Arial,Helvetica,'Helvetica Neue',sans-serif" font-size="14.667">-20.0</text><text x="204.91" y="34" fill="#333" font-family="Arial,Helvetica,'Helvetica Neue',sans-serif" font-size="14.667">-10.0</text><text x="330.968" y="34" fill="#333" font-family="Arial,Helvetica,'Helvetica Neue',sans-serif" font-size="14.667">0.0</text><text x="446.425" y="34" fill="#333" font-family="Arial,Helvetica,'Helvetica Neue',sans-serif" font-size="14.667">10.0</text><text x="565.959" y="34" fill="#333" font-family="Arial,Helvetica,'Helvetica Neue',sans-serif" font-size="14.667">20.0</text><text x="685.494" y="34" fill="#333" font-family="Arial,Helvetica,'Helvetica Neue',sans-serif" font-size="14.667">30.0</text><text x="805.028" y="34" fill="#333" font-family="Arial,Helvetica,'Helvetica Neue',sans-serif" font-size="14.667">40.0</text><text x="924.563" y="34" fill="#333" font-family="Arial,Helvetica,'Helvetica Neue',sans-serif" font-size="14.667">50.0</text><text x="1044.098" y="34" fill="#333" font-family="Arial,Helvetica,'Helvetica Neue',sans-serif" font-size="14.667">60.0</text><text x="1163.632" y="34" fill="#333" font-family="Arial,Helvetica,'Helvetica Neue',sans-serif" font-size="14.667">70.0</text><path fill="#4572a7" d="M855.16225 385.688889 L747.581125 385.688889 L747.581125 397.422222 L855.16225 397.422222"/><path fill="#4572a7" d="M1118.138333 322.266667 L795.394958 322.266667 L795.394958 334.0 L1118.138333 334.0"/><path fill="#4572a7" d="M891.022625 258.844444 L855.16225 258.844444 L855.16225 270.577778 L891.022625 270.577778"/><path fill="#4572a7" d="M795.394958 195.422222 L735.627667 195.422222 L735.627667 207.155556 L795.394958 207.155556"/><path fill="#4572a7" d="M795.394958 132.0 L592.186167 132.0 L592.186167 143.733333 L795.394958 143.733333"/><path fill="#4572a7" d="M998.60375 68.577778 L735.627667 68.577778 L735.627667 80.311111 L998.60375 80.311111"/><path fill="#aa4643" d="M986.650292 399.688889 L173.815125 399.688889 L173.815125 411.422222 L986.650292 411.422222"/><path fill="#aa4643" d="M1034.464125 336.266667 L221.628958 336.266667 L221.628958 348.0 L1034.464125 348.0"/><path fill="#aa4643" d="M1094.231417 272.844444 L341.163542 272.844444 L341.163542 284.577778 L1094.231417 284.577778"/><path fill="#aa4643" d="M974.696833 209.422222 L293.349708 209.422222 L293.349708 221.155556 L974.696833 221.155556"/><path fill="#aa4643" d="M831.255333 146.0 L556.325792 146.0 L556.325792 157.733333 L831.255333 157.733333"/><path fill="#aa4643" d="M974.696833 82.577778 L197.722042 82.577778 L197.722042 94.311111 L974.696833 94.311111"/></svg>