<svg xmlns="http://www.w3.org/2000/svg" width="1200" height="480" viewBox="0 0 1200 480"><rect width="1200" height="480" fill="#fff"/><path fill="none" stroke="#333" stroke-width="1.333" d="M65.170833 20.0 L65.170833 430.266667"/><path fill="none" stroke="#333" stroke-width="1.333" d="M65.170833 430.266667 L70.504167 430.266667"/><path fill="none" stroke="#333" stroke-width="1.333" d="M65.170833 381.425397 L70.504167 381.425397"/><path fill="none" stroke="#333" stroke-width="1.333" d="M65.170833 332.584127 L70.504167 332.584127"/><path fill="none" stroke="#333" stroke-width="1.333" d="M65.170833 283.742857 L70.504167 283.742857"/><path fill="none" stroke="#333" stroke-width="1.333" d="M65.170833 234.901587 L70.504167 234.901587"/><path fill="none" stroke="#333" stroke-width="1.333" d="M65.170833 186.060317 L70.504167 186.060317"/><path fill="none" stroke="#333" stroke-width="1.333" d="M65.170833 137.219048 L70.504167 137.219048"/><path fill="none" stroke="#333" stroke-width="1.333" d="M65.170833 88.377778 L70.504167 88.377778"/><path fill="none" stroke="#333" stroke-width="1.333" d="M65.170833 39.536508 L70.504167 39.536508"/><text x="20" y="435.267" fill="#333" font-family="Arial,Helvetica,'Helvetica Neue',sans-serif" font-size="14.667">-10.0</text><text x="28.156" y="386.425" fill="#333" font-family="Arial,Helvetica,'Helvetica Neue',sans-serif" font-size="14.667">-5.0</text><text x="33.047" y="337.584" fill="#333" font-family="Arial,Helvetica,'Helvetica Neue',sans-serif" font-size="14.667">0.0</text><text x="33.047" y="288.743" fill="#333" font-family="Arial,Helvetica,'Helvetica Neue',sans-serif" font-size="14.667">5.0</text><text x="24.891" y="239.902" fill="#333" font-family="Arial,Helvetica,'Helvetica Neue',sans-serif" font-size="14.667">10.0</text><text x="24.891" y="191.06" fill="#333" font-family="Arial,Helvetica,'Helvetica Neue',sans-serif" font-size="14.667">15.0</text><text x="24.891" y="142.219" fill="#333" font-family="Arial,Helvetica,'Helvetica Neue',sans-serif" font-size="14.667">20.0</text><text x="24.891" y="93.378" fill="#333" font-family="Arial,Helvetica,'Helvetica Neue',sans-serif" font-size="14.667">25.0</text><text x="24.891" y="44.537" fill="#333" font-family="Arial,Helvetica,'Helvetica Neue',sans-serif" font-size="14.667">30.0</text><path fill="none" stroke="#333" stroke-width="1.333" d="M1134.829167 20.0 L1134.829167 430.266667"/><path fill="none" stroke="#333" stroke-width="1.333" d="M1134.829167 430.266667 L1129.495833 430.266667"/><path fill="none" stroke="#333" stroke-width="1.333" d="M1134.829167 381.425397 L1129.495833 381.425397"/><path fill="none" stroke="#333" stroke-width="1.333" d="M1134.829167 332.584127 L1129.495833 332.584127"/><path fill="none" stroke="#333" stroke-width="1.333" d="M1134.829167 283.742857 L1129.495833 283.742857"/><path fill="none" stroke="#333" stroke-width="1.333" d="M1134.829167 234.901587 L1129.495833 234.901587"/><path fill="none" stroke="#333" stroke-width="1.333" d="M1134.829167 186.060317 L1129.495833 186.060317"/><path fill="none" stroke="#333" stroke-width="1.333" d="M1134.829167 137.219048 L1129.495833 137.219048"/><path fill="none" stroke="#333" stroke-width="1.333" d="M1134.829167 88.377778 L1129.495833 88.377778"/><path fill="none" stroke="#333" stroke-width="1.333" d="M1134.829167 39.536508 L1129.495833 39.536508"/><text x="1146.563" y="435.267" fill="#333" font-family="Arial,Helvetica,'Helvetica Neue',sans-serif" font-size="14.667">-10.0</text><text x="1146.563" y="386.425" fill="#333" font-family="Arial,Helvetica,'Helvetica Neue',sans-serif" font-size="14.667">-5.0</text><text x="1146.563" y="337.584" fill="#333" font-family="Arial,Helvetica,'Helvetica Neue',sans-serif" font-size="14.667">0.0</text><text x="1146.563" y="288.743" fill="#333" font-family="Arial,Helvetica,'Helvetica Neue',sans-serif" font-size="14.667">5.0</text><text x="1146.563" y="239.902" fill="#333" font-family="Arial,Helvetica,'Helvetica Neue',sans-serif" font-size="14.667">10.0</text><text x="1146.563" y="191.06" fill="#333" font-family="Arial,Helvetica,'Helvetica Neue',sans-serif" font-size="14.667">15.0</text><text x="1146.563" y="142.219" fill="#333" font-family="Arial,Helvetica,'Helvetica Neue',sans-serif" font-size="14.667">20.0</text><text x="1146.563" y="93.378" fill="#333" font-family="Arial,Helvetica,'Helvetica Neue',sans-serif" font-size="14.667">25.0</text><text x="1146.563" y="44.537" fill="#333" font-family="Arial,Helvetica,'Helvetica Neue',sans-serif" font-size="14.667">30.0</text><path fill="none" stroke="#333" stroke-width="1.333" d="M65.170833 430.266667 L1134.829167 430.266667"/><path fill="none" stroke="#333" stroke-width="1.333" d="M117.776979 430.266667 L117.776979 424.933333"/><path fill="none" stroke="#333" stroke-width="1.333" d="M205.453889 430.266667 L205.453889 424.933333"/><path fill="none" stroke="#333" stroke-width="1.333" d="M293.130798 430.266667 L293.130798 424.933333"/><path fill="none" stroke="#333" stroke-width="1.333" d="M380.807708 430.266667 L380.807708 424.933333"/><path fill="none" stroke="#333" stroke-width="1.333" d="M468.484618 430.266667 L468.484618 424.933333"/><path fill="none" stroke="#333" stroke-width="1.333" d="M556.161528 430.266667 L556.161528 424.933333"/><path fill="none" stroke="#333" stroke-width="1.333" d="M643.838438 430.266667 L643.838438 424.933333"/><path fill="none" stroke="#333" stroke-width="1.333" d="M731.515348 430.266667 L731.515348 424.933333"/><path fill="none" stroke="#333" stroke-width="1.333" d="M819.192258 430.266667 L819.192258 424.933333"/><path fill="none" stroke="#333" stroke-width="1.333" d="M906.869168 430.266667 L906.869168 424.933333"/><path fill="none" stroke="#333" stroke-width="1.333" d="M994.546077 430.266667 L994.546077 424.933333"/><path fill="none" stroke="#333" stroke-width="1.333" d="M1082.222987 430.266667 L1082.222987 424.933333"/><text x="105.949" y="456" fill="#333" font-family="Arial,Helvetica,'Helvetica Neue',sans-serif" font-size="14.667">Jan</text><text x="192.813" y="456" fill="#333" font-family="Arial,Helvetica,'Helvetica Neue',sans-serif" font-size="14.667">Feb</text><text x="280.498" y="456" fill="#333" font-family="Arial,Helvetica,'Helvetica Neue',sans-serif" font-size="14.667">Mar</text><text x="369.394" y="456" fill="#333" font-family="Arial,Helvetica,'Helvetica Neue',sans-serif" font-size="14.667">Apr</text><text x="454.625" y="456" fill="#333" font-family="Arial,Helvetica,'Helvetica Neue',sans-serif" font-size="14.667">May</text><text x="544.333" y="456" fill="#333" font-family="Arial,Helvetica,'Helvetica Neue',sans-serif" font-size="14.667">Jun</text><text x="634.456" y="456" fill="#333" font-family="Arial,Helvetica,'Helvetica Neue',sans-serif" font-size="14.667">Jul</text><text x="718.468" y="456" fill="#333" font-family="Arial,Helvetica,'Helvetica Neue',sans-serif" font-size="14.667">Aug</text><text x="806.145" y="456" fill="#333" font-family="Arial,Helvetica,'Helvetica Neue',sans-serif" font-size="14.667">Sep</text><text x="895.455" y="456" fill="#333" font-family="Arial,Helvetica,'Helvetica Neue',sans-serif" font-size="14.667">Oct</text><text x="981.499" y="456" fill="#333" font-family="Arial,Helvetica,'Helvetica Neue',sans-serif" font-size="14.667">Nov</text><text x="1069.176" y="456" fill="#333" font-family="Arial,Helvetica,'Helvetica Neue',sans-serif" font-size="14.667">Dec</text><path fill="#4572a7" d="M92.354757 332.584127 L92.354757 404.869206 L143.199201 404.869206 L143.199201 332.584127"/><path fill="#4572a7" d="M180.031666 332.584127 L180.031666 389.24 L230.876111 389.24 L230.876111 332.584127"/><path fill="#4572a7" d="M267.708576 332.584127 L267.708576 333.560952 L318.553021 333.560952 L318.553021 332.584127"/><path fill="#4572a7" d="M355.385486 332.584127 L355.385486 263.229524 L406.229931 263.229524 L406.229931 332.584127"/><path fill="#4572a7" d="M443.062396 332.584127 L443.062396 188.990794 L493.90684 188.990794 L493.90684 332.584127"/><path fill="#4572a7" d="M530.739306 332.584127 L530.739306 159.686032 L581.58375 159.686032 L581.58375 332.584127"/><path fill="#4572a7" d="M618.416216 332.584127 L618.416216 131.358095 L669.26066 131.358095 L669.26066 332.584127"/><path fill="#4572a7" d="M706.093126 332.584127 L706.093126 148.940952 L756.93757 148.940952 L756.93757 332.584127"/><path fill="#4572a7" d="M793.770035 332.584127 L793.770035 209.504127 L844.61448 209.504127 L844.61448 332.584127"/><path fill="#4572a7" d="M881.446945 332.584127 L881.446945 272.997778 L932.29139 272.997778 L932.29139 332.584127"/><path fill="#4572a7" d="M969.123855 332.584127 L969.123855 321.839048 L1019.9683 321.839048 L1019.9683 332.584127"/><path fill="#4572a7" d="M1056.800765 332.584127 L1056.800765 367.749841 L1107.64521 367.749841 L1107.64521 332.584127"/><text x="105.136" y="392.069" fill="#000" font-family="Arial,Helvetica,'Helvetica Neue',sans-serif" font-size="14.667">-7.4</text><text x="192.813" y="376.44" fill="#000" font-family="Arial,Helvetica,'Helvetica Neue',sans-serif" font-size="14.667">-5.8</text><text x="280.49" y="320.761" fill="#000" font-family="Arial,Helvetica,'Helvetica Neue',sans-serif" font-size="14.667">-0.1</text><text x="370.612" y="250.43" fill="#000" font-family="Arial,Helvetica,'Helvetica Neue',sans-serif" font-size="14.667">7.1</text><text x="454.211" y="176.191" fill="#000" font-family="Arial,Helvetica,'Helvetica Neue',sans-serif" font-size="14.667">14.7</text><text x="541.888" y="146.886" fill="#000" font-family="Arial,Helvetica,'Helvetica Neue',sans-serif" font-size="14.667">17.7</text><text x="629.565" y="118.558" fill="#000" font-family="Arial,Helvetica,'Helvetica Neue',sans-serif" font-size="14.667">20.6</text><text x="717.242" y="136.141" fill="#000" font-family="Arial,Helvetica,'Helvetica Neue',sans-serif" font-size="14.667">18.8</text><text x="804.919" y="196.704" fill="#000" font-family="Arial,Helvetica,'Helvetica Neue',sans-serif" font-size="14.667">12.6</text><text x="896.674" y="260.198" fill="#000" font-family="Arial,Helvetica,'Helvetica Neue',sans-serif" font-size="14.667">6.1</text><text x="984.351" y="309.039" fill="#000" font-family="Arial,Helvetica,'Helvetica Neue',sans-serif" font-size="14.667">1.1</text><text x="1069.582" y="354.95" fill="#000" font-family="Arial,Helvetica,'Helvetica Neue',sans-serif" font-size="14.667">-3.6</text></svg>