<svg xmlns="http://www.w3.org/2000/svg" width="1280" height="480" viewBox="0 0 1280 480"><rect width="1280" height="480" fill="#fff"/><path fill="none" stroke="#333" stroke-width="1.333" d="M65.170833 49.733333 L65.170833 430.266667"/><path fill="none" stroke="#333" stroke-width="1.333" d="M65.170833 411.24 L70.504167 411.24"/><path fill="none" stroke="#333" stroke-width="1.333" d="M65.170833 373.186667 L70.504167 373.186667"/><path fill="none" stroke="#333" stroke-width="1.333" d="M65.170833 335.133333 L70.504167 335.133333"/><path fill="none" stroke="#333" stroke-width="1.333" d="M65.170833 297.08 L70.504167 297.08"/><path fill="none" stroke="#333" stroke-width="1.333" d="M65.170833 259.026667 L70.504167 259.026667"/><path fill="none" stroke="#333" stroke-width="1.333" d="M65.170833 220.973333 L70.504167 220.973333"/><path fill="none" stroke="#333" stroke-width="1.333" d="M65.170833 182.92 L70.504167 182.92"/><path fill="none" stroke="#333" stroke-width="1.333" d="M65.170833 144.866667 L70.504167 144.866667"/><path fill="none" stroke="#333" stroke-width="1.333" d="M65.170833 106.813333 L70.504167 106.813333"/><path fill="none" stroke="#333" stroke-width="1.333" d="M65.170833 68.76 L70.504167 68.76"/><text x="20" y="416.24" fill="#333" font-family="Arial,Helvetica,'Helvetica Neue',sans-serif" font-size="14.667">-20.0</text><text x="20" y="378.187" fill="#333" font-family="Arial,Helvetica,'Helvetica Neue',sans-serif" font-size="14.667">-10.0</text><text x="33.047" y="340.133" fill="#333" font-family="Arial,Helvetica,'Helvetica Neue',sans-serif" font-size="14.667">0.0</text><text x="24.891" y="302.08" fill="#333" font-family="Arial,Helvetica,'Helvetica Neue',sans-serif" font-size="14.667">10.0</text><text x="24.891" y="264.027" fill="#333" font-family="Arial,Helvetica,'Helvetica Neue',sans-serif" font-size="14.667">20.0</text><text x="24.891" y="225.973" fill="#333" font-family="Arial,Helvetica,'Helvetica Neue',sans-serif" font-size="14.667">30.0</text><text x="24.891" y="187.92" fill="#333" font-family="Arial,Helvetica,'Helvetica Neue',sans-serif" font-size="14.667">40.0</text><text x="24.891" y="149.867" fill="#333" font-family="Arial,Helvetica,'Helvetica Neue',sans-serif" font-size="14.667">50.0</text><text x="24.891" y="111.813" fill="#333" font-family="Arial,Helvetica,'Helvetica Neue',sans-serif" font-size="14.667">60.0</text><text x="24.891" y="73.76" fill="#333" font-family="Arial,Helvetica,'Helvetica Neue',sans-serif" font-size="14.667">70.0</text><path fill="none" stroke="#333" stroke-width="1.333" d="M1214.829167 49.733333 L1214.829167 430.266667"/><path fill="none" stroke="#333" stroke-width="1.333" d="M1214.829167 411.24 L1209.495833 411.24"/><path fill="none" stroke="#333" stroke-width="1.333" d="M1214.829167 373.186667 L1209.495833 373.186667"/><path fill="none" stroke="#333" stroke-width="1.333" d="M1214.829167 335.133333 L1209.495833 335.133333"/><path fill="none" stroke="#333" stroke-width="1.333" d="M1214.829167 297.08 L1209.495833 297.08"/><path fill="none" stroke="#333" stroke-width="1.333" d="M1214.829167 259.026667 L1209.495833 259.026667"/><path fill="none" stroke="#333" stroke-width="1.333" d="M1214.829167 220.973333 L1209.495833 220.973333"/><path fill="none" stroke="#333" stroke-width="1.333" d="M1214.829167 182.92 L1209.495833 182.92"/><path fill="none" stroke="#333" stroke-width="1.333" d="M1214.829167 144.866667 L1209.495833 144.866667"/><path fill="none" stroke="#333" stroke-width="1.333" d="M1214.829167 106.813333 L1209.495833 106.813333"/><path fill="none" stroke="#333" stroke-width="1.333" d="M1214.829167 68.76 L1209.495833 68.76"/><text x="1226.563" y="416.24" fill="#333" font-family="Arial,Helvetica,'Helvetica Neue',sans-serif" font-size="14.667">-20.0</text><text x="1226.563" y="378.187" fill="#333" font-family="Arial,Helvetica,'Helvetica Neue',sans-serif" font-size="14.667">-10.0</text><text x="1226.563" y="340.133" fill="#333" font-family="Arial,Helvetica,'Helvetica Neue',sans-serif" font-size="14.667">0.0</text><text x="1226.563" y="302.08" fill="#333" font-family="Arial,Helvetica,'Helvetica Neue',sans-serif" font-size="14.667">10.0</text><text x="1226.563" y="264.027" fill="#333" font-family="Arial,Helvetica,'Helvetica Neue',sans-serif" font-size="14.667">20.0</text><text x="1226.563" y="225.973" fill="#333" font-family="Arial,Helvetica,'Helvetica Neue',sans-serif" font-size="14.667">30.0</text><text x="1226.563" y="187.92" fill="#333" font-family="Arial,Helvetica,'Helvetica Neue',sans-serif" font-size="14.667">40.0</text><text x="1226.563" y="149.867" fill="#333" font-family="Arial,Helvetica,'Helvetica Neue',sans-serif" font-size="14.667">50.0</text><text x="1226.563" y="111.813" fill="#333" font-family="Arial,Helvetica,'Helvetica Neue',sans-serif" font-size="14.667">60.0</text><text x="1226.563" y="73.76" fill="#333" font-family="Arial,Helvetica,'Helvetica Neue',sans-serif" font-size="14.667">70.0</text><path fill="none" stroke="#333" stroke-width="1.333" d="M65.170833 430.266667 L1214.829167 430.266667"/><path fill="none" stroke="#333" stroke-width="1.333" d="M65.170833 430.266667 L65.170833 424.933333"/><path fill="none" stroke="#333" stroke-width="1.333" d="M65.170833 430.266667 L65.170833 424.933333"/><path fill="none" stroke="#333" stroke-width="1.333" d="M256.780556 430.266667 L256.780556 424.933333"/><path fill="none" stroke="#333" stroke-width="1.333" d="M256.780556 430.266667 L256.780556 424.933333"/><path fill="none" stroke="#333" stroke-width="1.333" d="M448.390278 430.266667 L448.390278 424.933333"/><path fill="none" stroke="#333" stroke-width="1.333" d="M448.390278 430.266667 L448.390278 424.933333"/><path fill="none" stroke="#333" stroke-width="1.333" d="M640.0 430.266667 L640.0 424.933333"/><path fill="none" stroke="#333" stroke-width="1.333" d="M640.0 430.266667 L640.0 424.933333"/><path fill="none" stroke="#333" stroke-width="1.333" d="M831.609722 430.266667 L831.609722 424.933333"/><path fill="none" stroke="#333" stroke-width="1.333" d="M831.609722 430.266667 L831.609722 424.933333"/><path fill="none" stroke="#333" stroke-width="1.333" d="M1023.219444 430.266667 L1023.219444 424.933333"/><path fill="none" stroke="#333" stroke-width="1.333" d="M1023.219444 430.266667 L1023.219444 424.933333"/><path fill="none" stroke="#333" stroke-width="1.333" d="M1214.829167 430.266667 L1214.829167 424.933333"/><text x="156.085" y="456" fill="#333" font-family="Arial,Helvetica,'Helvetica Neue',sans-serif" font-size="14.667">A</text><text x="347.695" y="456" fill="#333" font-family="Arial,Helvetica,'Helvetica Neue',sans-serif" font-size="14.667">B</text><text x="538.898" y="456" fill="#333" font-family="Arial,Helvetica,'Helvetica Neue',sans-serif" font-size="14.667">C</text><text x="730.508" y="456" fill="#333" font-family="Arial,Helvetica,'Helvetica Neue',sans-serif" font-size="14.667">D</text><text x="922.524" y="456" fill="#333" font-family="Arial,Helvetica,'Helvetica Neue',sans-serif" font-size="14.667">E</text><text x="1114.54" y="456" fill="#333" font-family="Arial,Helvetica,'Helvetica Neue',sans-serif" font-size="14.667">F</text><path fill="none" stroke="#333" stroke-width="1.333" d="M65.170833 49.733333 L1214.829167 49.733333"/><path fill="none" stroke="#333" stroke-width="1.333" d="M65.170833 49.733333 L65.170833 55.066667"/><path fill="none" stroke="#333" stroke-width="1.333" d="M65.170833 49.733333 L65.170833 55.066667"/><path fill="none" stroke="#333" stroke-width="1.333" d="M256.780556 49.733333 L256.780556 55.066667"/><path fill="none" stroke="#333" stroke-width="1.333" d="M256.780556 49.733333 L256.780556 55.066667"/><path fill="none" stroke="#333" stroke-width="1.333" d="M448.390278 49.733333 L448.390278 55.066667"/><path fill="none" stroke="#333" stroke-width="1.333" d="M448.390278 49.733333 L448.390278 55.066667"/><path fill="none" stroke="#333" stroke-width="1.333" d="M640.0 49.733333 L640.0 55.066667"/><path fill="none" stroke="#333" stroke-width="1.333" d="M640.0 49.733333 L640.0 55.066667"/><path fill="none" stroke="#333" stroke-width="1.333" d="M831.609722 49.733333 L831.609722 55.066667"/><path fill="none" stroke="#333" stroke-width="1.333" d="M831.609722 49.733333 L831.609722 55.066667"/><path fill="none" stroke="#333" stroke-width="1.333" d="M1023.219444 49.733333 L1023.219444 55.066667"/><path fill="none" stroke="#333" stroke-width="1.333" d="M1023.219444 49.733333 L1023.219444 55.066667"/><path fill="none" stroke="#333" stroke-width="1.333" d="M1214.829167 49.733333 L1214.829167 55.066667"/><text x="156.085" y="34" fill="#333" font-family="Arial,Helvetica,'Helvetica Neue',sans-serif" font-size="14.667">A</text><text x="347.695" y="34" fill="#333" font-family="Arial,Helvetica,'Helvetica Neue',sans-serif" font-size="14.667">B</text><text x="538.898" y="34" fill="#333" font-family="Arial,Helvetica,'Helvetica Neue',sans-serif" font-size="14.667">C</text><text x="730.508" y="34" fill="#333" font-family="Arial,Helvetica,'Helvetica Neue',sans-serif" font-size="14.667">D</text><text x="922.524" y="34" fill="#333" font-family="Arial,Helvetica,'Helvetica Neue',sans-serif" font-size="14.667">E</text><text x="1114.54" y="34" fill="#333" font-family="Arial,Helvetica,'Helvetica Neue',sans-serif" font-size="14.667">F</text><path fill="#4572a7" d="M120.375694 171.504 L120.375694 205.752 L155.575694 205.752 L155.575694 171.504"/><path fill="#4572a7" d="M311.985417 87.786667 L311.985417 190.530667 L347.185417 190.530667 L347.185417 87.786667"/><path fill="#4572a7" d="M503.595139 160.088 L503.595139 171.504 L538.795139 171.504 L538.795139 160.088"/><path fill="#4572a7" d="M695.204861 190.530667 L695.204861 209.557333 L730.404861 209.557333 L730.404861 190.530667"/><path fill="#4572a7" d="M886.814583 190.530667 L886.814583 255.221333 L922.014583 255.221333 L922.014583 190.530667"/><path fill="#4572a7" d="M1078.424306 125.84 L1078.424306 209.557333 L1113.624306 209.557333 L1113.624306 125.84"/><path fill="#aa4643" d="M166.375694 129.645333 L166.375694 388.408 L201.575694 388.408 L201.575694 129.645333"/><path fill="#aa4643" d="M357.985417 114.424 L357.985417 373.186667 L393.185417 373.186667 L393.185417 114.424"/><path fill="#aa4643" d="M549.595139 95.397333 L549.595139 335.133333 L584.795139 335.133333 L584.795139 95.397333"/><path fill="#aa4643" d="M741.204861 133.450667 L741.204861 350.354667 L776.404861 350.354667 L776.404861 133.450667"/><path fill="#aa4643" d="M932.814583 179.114667 L932.814583 266.637333 L968.014583 266.637333 L968.014583 179.114667"/><path fill="#aa4643" d="M1124.424306 133.450667 L1124.424306 380.797333 L1159.624306 380.797333 L1159.624306 133.450667"/></svg>