<svg xmlns="http://www.w3.org/2000/svg" width="400" height="400" viewBox="0 0 400 400"><rect width="400" height="400" fill="#fff"/><path fill="none" stroke="#333" stroke-width="1.333" d="M20.0 350.266667 L380.0 350.266667"/><path fill="none" stroke="#333" stroke-width="1.333" d="M20.0 350.266667 L20.0 344.933333"/><path fill="none" stroke="#333" stroke-width="1.333" d="M110.0 350.266667 L110.0 344.933333"/><path fill="none" stroke="#333" stroke-width="1.333" d="M200.0 350.266667 L200.0 344.933333"/><path fill="none" stroke="#333" stroke-width="1.333" d="M290.0 350.266667 L290.0 344.933333"/><path fill="none" stroke="#333" stroke-width="1.333" d="M380.0 350.266667 L380.0 344.933333"/><text x="9.805" y="376" fill="#333" font-family="Arial,Helvetica,'Helvetica Neue',sans-serif" font-size="14.667">0.0</text><text x="95.727" y="376" fill="#333" font-family="Arial,Helvetica,'Helvetica Neue',sans-serif" font-size="14.667">50.0</text><text x="181.648" y="376" fill="#333" font-family="Arial,Helvetica,'Helvetica Neue',sans-serif" font-size="14.667">100.0</text><text x="271.648" y="376" fill="#333" font-family="Arial,Helvetica,'Helvetica Neue',sans-serif" font-size="14.667">150.0</text><text x="361.648" y="376" fill="#333" font-family="Arial,Helvetica,'Helvetica Neue',sans-serif" font-size="14.667">200.0</text><path fill="none" stroke="#333" stroke-width="1.333" d="M20.0 49.733333 L380.0 49.733333"/><path fill="none" stroke="#333" stroke-width="1.333" d="M20.0 49.733333 L20.0 55.066667"/><path fill="none" stroke="#333" stroke-width="1.333" d="M110.0 49.733333 L110.0 55.066667"/><path fill="none" stroke="#333" stroke-width="1.333" d="M200.0 49.733333 L200.0 55.066667"/><path fill="none" stroke="#333" stroke-width="1.333" d="M290.0 49.733333 L290.0 55.066667"/><path fill="none" stroke="#333" stroke-width="1.333" d="M380.0 49.733333 L380.0 55.066667"/><text x="9.805" y="34" fill="#333" font-family="Arial,Helvetica,'Helvetica Neue',sans-serif" font-size="14.667">0.0</text><text x="95.727" y="34" fill="#333" font-family="Arial,Helvetica,'Helvetica Neue',sans-serif" font-size="14.667">50.0</text><text x="181.648" y="34" fill="#333" font-family="Arial,Helvetica,'Helvetica Neue',sans-serif" font-size="14.667">100.0</text><text x="271.648" y="34" fill="#333" font-family="Arial,Helvetica,'Helvetica Neue',sans-serif" font-size="14.667">150.0</text><text x="361.648" y="34" fill="#333" font-family="Arial,Helvetica,'Helvetica Neue',sans-serif" font-size="14.667">200.0</text><path fill="#000" d="M43.333333 264.4 M32.666667 264.4 a5.333333 5.333333 0 1 0 10.666667 0 a5.333333 5.333333 0 1 0 -10.666667 0"/><path fill="#000" d="M154.666667 135.6 M101.333333 135.6 a26.666667 26.666667 0 1 0 53.333333 0 a26.666667 26.666667 0 1 0 -53.333333 0"/><path fill="#000" d="M318.666667 92.666667 M297.333333 92.666667 a10.666667 10.666667 0 1 0 21.333333 0 a10.666667 10.666667 0 1 0 -21.333333 0"/><path fill="#000" d="M262.0 307.333333 M246.0 307.333333 a8.0 8.0 0 1 0 16.0 0 a8.0 8.0 0 1 0 -16.0 0"/></svg>