<svg xmlns="http://www.w3.org/2000/svg" width="1200" height="480" viewBox="0 0 1200 480"><rect width="1200" height="480" fill="#fff"/><path fill="none" stroke="#333" stroke-width="1.333" d="M60.280208 430.266667 L1139.719792 430.266667"/><path fill="none" stroke="#333" stroke-width="1.333" d="M60.280208 430.266667 L60.280208 424.933333"/><path fill="none" stroke="#333" stroke-width="1.333" d="M214.48587 430.266667 L214.48587 424.933333"/><path fill="none" stroke="#333" stroke-width="1.333" d="M368.691532 430.266667 L368.691532 424.933333"/><path fill="none" stroke="#333" stroke-width="1.333" d="M522.897209 430.266667 L522.897209 424.933333"/><path fill="none" stroke="#333" stroke-width="1.333" d="M677.102855 430.266667 L677.102855 424.933333"/><path fill="none" stroke="#333" stroke-width="1.333" d="M831.308501 430.266667 L831.308501 424.933333"/><path fill="none" stroke="#333" stroke-width="1.333" d="M985.51421 430.266667 L985.51421 424.933333"/><path fill="none" stroke="#333" stroke-width="1.333" d="M1139.719792 430.266667 L1139.719792 424.933333"/><text x="46.007" y="456" fill="#333" font-family="Arial,Helvetica,'Helvetica Neue',sans-serif" font-size="14.667">10.0</text><text x="200.212" y="456" fill="#333" font-family="Arial,Helvetica,'Helvetica Neue',sans-serif" font-size="14.667">15.7</text><text x="354.418" y="456" fill="#333" font-family="Arial,Helvetica,'Helvetica Neue',sans-serif" font-size="14.667">21.4</text><text x="508.624" y="456" fill="#333" font-family="Arial,Helvetica,'Helvetica Neue',sans-serif" font-size="14.667">27.1</text><text x="662.829" y="456" fill="#333" font-family="Arial,Helvetica,'Helvetica Neue',sans-serif" font-size="14.667">32.9</text><text x="817.035" y="456" fill="#333" font-family="Arial,Helvetica,'Helvetica Neue',sans-serif" font-size="14.667">38.6</text><text x="971.241" y="456" fill="#333" font-family="Arial,Helvetica,'Helvetica Neue',sans-serif" font-size="14.667">44.3</text><text x="1125.446" y="456" fill="#333" font-family="Arial,Helvetica,'Helvetica Neue',sans-serif" font-size="14.667">50.0</text><path fill="none" stroke="#333" stroke-width="1.333" d="M60.280208 49.733333 L60.280208 430.266667"/><path fill="none" stroke="#333" stroke-width="1.333" d="M60.280208 366.844444 L65.613542 366.844444"/><path fill="none" stroke="#333" stroke-width="1.333" d="M60.280208 303.422222 L65.613542 303.422222"/><path fill="none" stroke="#333" stroke-width="1.333" d="M60.280208 240.0 L65.613542 240.0"/><path fill="none" stroke="#333" stroke-width="1.333" d="M60.280208 176.577778 L65.613542 176.577778"/><path fill="none" stroke="#333" stroke-width="1.333" d="M60.280208 113.155556 L65.613542 113.155556"/><path fill="none" stroke="#333" stroke-width="1.333" d="M60.280208 49.733333 L65.613542 49.733333"/><text x="20" y="371.844" fill="#333" font-family="Arial,Helvetica,'Helvetica Neue',sans-serif" font-size="14.667">10.0</text><text x="20" y="308.422" fill="#333" font-family="Arial,Helvetica,'Helvetica Neue',sans-serif" font-size="14.667">20.0</text><text x="20" y="245" fill="#333" font-family="Arial,Helvetica,'Helvetica Neue',sans-serif" font-size="14.667">30.0</text><text x="20" y="181.578" fill="#333" font-family="Arial,Helvetica,'Helvetica Neue',sans-serif" font-size="14.667">40.0</text><text x="20" y="118.156" fill="#333" font-family="Arial,Helvetica,'Helvetica Neue',sans-serif" font-size="14.667">50.0</text><text x="20" y="54.733" fill="#333" font-family="Arial,Helvetica,'Helvetica Neue',sans-serif" font-size="14.667">60.0</text><path fill="none" stroke="#333" stroke-width="1.333" d="M1139.719792 49.733333 L1139.719792 430.266667"/><path fill="none" stroke="#333" stroke-width="1.333" d="M1139.719792 366.844444 L1134.386458 366.844444"/><path fill="none" stroke="#333" stroke-width="1.333" d="M1139.719792 303.422222 L1134.386458 303.422222"/><path fill="none" stroke="#333" stroke-width="1.333" d="M1139.719792 240.0 L1134.386458 240.0"/><path fill="none" stroke="#333" stroke-width="1.333" d="M1139.719792 176.577778 L1134.386458 176.577778"/><path fill="none" stroke="#333" stroke-width="1.333" d="M1139.719792 113.155556 L1134.386458 113.155556"/><path fill="none" stroke="#333" stroke-width="1.333" d="M1139.719792 49.733333 L1134.386458 49.733333"/><text x="1151.453" y="371.844" fill="#333" font-family="Arial,Helvetica,'Helvetica Neue',sans-serif" font-size="14.667">10.0</text><text x="1151.453" y="308.422" fill="#333" font-family="Arial,Helvetica,'Helvetica Neue',sans-serif" font-size="14.667">20.0</text><text x="1151.453" y="245" fill="#333" font-family="Arial,Helvetica,'Helvetica Neue',sans-serif" font-size="14.667">30.0</text><text x="1151.453" y="181.578" fill="#333" font-family="Arial,Helvetica,'Helvetica Neue',sans-serif" font-size="14.667">40.0</text><text x="1151.453" y="118.156" fill="#333" font-family="Arial,Helvetica,'Helvetica Neue',sans-serif" font-size="14.667">50.0</text><text x="1151.453" y="54.733" fill="#333" font-family="Arial,Helvetica,'Helvetica Neue',sans-serif" font-size="14.667">60.0</text><path fill="none" stroke="#333" stroke-width="1.333" d="M60.280208 49.733333 L1139.719792 49.733333"/><path fill="none" stroke="#333" stroke-width="1.333" d="M60.280208 49.733333 L60.280208 55.066667"/><path fill="none" stroke="#333" stroke-width="1.333" d="M214.48587 49.733333 L214.48587 55.066667"/><path fill="none" stroke="#333" stroke-width="1.333" d="M368.691532 49.733333 L368.691532 55.066667"/><path fill="none" stroke="#333" stroke-width="1.333" d="M522.897209 49.733333 L522.897209 55.066667"/><path fill="none" stroke="#333" stroke-width="1.333" d="M677.102855 49.733333 L677.102855 55.066667"/><path fill="none" stroke="#333" stroke-width="1.333" d="M831.308501 49.733333 L831.308501 55.066667"/><path fill="none" stroke="#333" stroke-width="1.333" d="M985.51421 49.733333 L985.51421 55.066667"/><path fill="none" stroke="#333" stroke-width="1.333" d="M1139.719792 49.733333 L1139.719792 55.066667"/><text x="46.007" y="34" fill="#333" font-family="Arial,Helvetica,'Helvetica Neue',sans-serif" font-size="14.667">10.0</text><text x="200.212" y="34" fill="#333" font-family="Arial,Helvetica,'Helvetica Neue',sans-serif" font-size="14.667">15.7</text><text x="354.418" y="34" fill="#333" font-family="Arial,Helvetica,'Helvetica Neue',sans-serif" font-size="14.667">21.4</text><text x="508.624" y="34" fill="#333" font-family="Arial,Helvetica,'Helvetica Neue',sans-serif" font-size="14.667">27.1</text><text x="662.829" y="34" fill="#333" font-family="Arial,Helvetica,'Helvetica Neue',sans-serif" font-size="14.667">32.9</text><text x="817.035" y="34" fill="#333" font-family="Arial,Helvetica,'Helvetica Neue',sans-serif" font-size="14.667">38.6</text><text x="971.241" y="34" fill="#333" font-family="Arial,Helvetica,'Helvetica Neue',sans-serif" font-size="14.667">44.3</text><text x="1125.446" y="34" fill="#333" font-family="Arial,Helvetica,'Helvetica Neue',sans-serif" font-size="14.667">50.0</text><path fill="#4572a7" d="M60.280208 214.631111 L195.210156 189.262222 L330.140104 157.551111 L600.0 220.973333 L869.859896 297.08 L1139.719792 220.973333 L1139.719792 430.266667 L869.859896 430.266667 L600.0 430.266667 L330.140104 430.266667 L195.210156 430.266667 L60.280208 430.266667"/><path fill="#4572a7" d="M64.280208 214.631111 M56.280208 214.631111 a4.0 4.0 0 1 0 8.0 0 a4.0 4.0 0 1 0 -8.0 0"/><path fill="#4572a7" d="M199.210156 189.262222 M191.210156 189.262222 a4.0 4.0 0 1 0 8.0 0 a4.0 4.0 0 1 0 -8.0 0"/><path fill="#4572a7" d="M334.140104 157.551111 M326.140104 157.551111 a4.0 4.0 0 1 0 8.0 0 a4.0 4.0 0 1 0 -8.0 0"/><path fill="#4572a7" d="M604.0 220.973333 M596.0 220.973333 a4.0 4.0 0 1 0 8.0 0 a4.0 4.0 0 1 0 -8.0 0"/><path fill="#4572a7" d="M873.859896 297.08 M865.859896 297.08 a4.0 4.0 0 1 0 8.0 0 a4.0 4.0 0 1 0 -8.0 0"/><path fill="#4572a7" d="M1143.719792 220.973333 M1135.719792 220.973333 a4.0 4.0 0 1 0 8.0 0 a4.0 4.0 0 1 0 -8.0 0"/></svg>