<svg xmlns="http://www.w3.org/2000/svg" width="1200" height="280" viewBox="0 0 1200 280"><rect width="1200" height="280" fill="#fff"/><path fill="none" stroke="#333" stroke-width="1.333" d="M68.436458 230.266667 L1131.563542 230.266667"/><path fill="none" stroke="#333" stroke-width="1.333" d="M68.436458 230.266667 L68.436458 224.933333"/><path fill="none" stroke="#333" stroke-width="1.333" d="M220.311763 230.266667 L220.311763 224.933333"/><path fill="none" stroke="#333" stroke-width="1.333" d="M372.187067 230.266667 L372.187067 224.933333"/><path fill="none" stroke="#333" stroke-width="1.333" d="M524.062387 230.266667 L524.062387 224.933333"/><path fill="none" stroke="#333" stroke-width="1.333" d="M675.937676 230.266667 L675.937676 224.933333"/><path fill="none" stroke="#333" stroke-width="1.333" d="M827.812965 230.266667 L827.812965 224.933333"/><path fill="none" stroke="#333" stroke-width="1.333" d="M979.688316 230.266667 L979.688316 224.933333"/><path fill="none" stroke="#333" stroke-width="1.333" d="M1131.563542 230.266667 L1131.563542 224.933333"/><text x="39.89" y="256" fill="#333" font-family="Arial,Helvetica,'Helvetica Neue',sans-serif" font-size="14.667">05:15:44</text><text x="191.765" y="256" fill="#333" font-family="Arial,Helvetica,'Helvetica Neue',sans-serif" font-size="14.667">06:06:56</text><text x="343.64" y="256" fill="#333" font-family="Arial,Helvetica,'Helvetica Neue',sans-serif" font-size="14.667">06:58:08</text><text x="495.516" y="256" fill="#333" font-family="Arial,Helvetica,'Helvetica Neue',sans-serif" font-size="14.667">07:49:20</text><text x="647.391" y="256" fill="#333" font-family="Arial,Helvetica,'Helvetica Neue',sans-serif" font-size="14.667">08:40:32</text><text x="799.266" y="256" fill="#333" font-family="Arial,Helvetica,'Helvetica Neue',sans-serif" font-size="14.667">09:31:44</text><text x="951.141" y="256" fill="#333" font-family="Arial,Helvetica,'Helvetica Neue',sans-serif" font-size="14.667">10:22:56</text><text x="1103.564" y="256" fill="#333" font-family="Arial,Helvetica,'Helvetica Neue',sans-serif" font-size="14.667">11:14:08</text><path fill="none" stroke="#333" stroke-width="1.333" d="M68.436458 49.733333 L68.436458 230.266667"/><path fill="none" stroke="#333" stroke-width="1.333" d="M68.436458 202.226735 L73.769792 202.226735"/><path fill="none" stroke="#333" stroke-width="1.333" d="M68.436458 170.416939 L73.769792 170.416939"/><path fill="none" stroke="#333" stroke-width="1.333" d="M68.436458 138.607143 L73.769792 138.607143"/><path fill="none" stroke="#333" stroke-width="1.333" d="M68.436458 106.797348 L73.769792 106.797348"/><path fill="none" stroke="#333" stroke-width="1.333" d="M68.436458 74.987552 L73.769792 74.987552"/><text x="28.156" y="207.227" fill="#333" font-family="Arial,Helvetica,'Helvetica Neue',sans-serif" font-size="14.667">20.0</text><text x="28.156" y="175.417" fill="#333" font-family="Arial,Helvetica,'Helvetica Neue',sans-serif" font-size="14.667">40.0</text><text x="28.156" y="143.607" fill="#333" font-family="Arial,Helvetica,'Helvetica Neue',sans-serif" font-size="14.667">60.0</text><text x="28.156" y="111.797" fill="#333" font-family="Arial,Helvetica,'Helvetica Neue',sans-serif" font-size="14.667">80.0</text><text x="20" y="79.988" fill="#333" font-family="Arial,Helvetica,'Helvetica Neue',sans-serif" font-size="14.667">100.0</text><path fill="none" stroke="#333" stroke-width="1.333" d="M1131.563542 49.733333 L1131.563542 230.266667"/><path fill="none" stroke="#333" stroke-width="1.333" d="M1131.563542 202.226735 L1126.230208 202.226735"/><path fill="none" stroke="#333" stroke-width="1.333" d="M1131.563542 170.416939 L1126.230208 170.416939"/><path fill="none" stroke="#333" stroke-width="1.333" d="M1131.563542 138.607143 L1126.230208 138.607143"/><path fill="none" stroke="#333" stroke-width="1.333" d="M1131.563542 106.797348 L1126.230208 106.797348"/><path fill="none" stroke="#333" stroke-width="1.333" d="M1131.563542 74.987552 L1126.230208 74.987552"/><text x="1143.297" y="207.227" fill="#333" font-family="Arial,Helvetica,'Helvetica Neue',sans-serif" font-size="14.667">20.0</text><text x="1143.297" y="175.417" fill="#333" font-family="Arial,Helvetica,'Helvetica Neue',sans-serif" font-size="14.667">40.0</text><text x="1143.297" y="143.607" fill="#333" font-family="Arial,Helvetica,'Helvetica Neue',sans-serif" font-size="14.667">60.0</text><text x="1143.297" y="111.797" fill="#333" font-family="Arial,Helvetica,'Helvetica Neue',sans-serif" font-size="14.667">80.0</text><text x="1143.297" y="79.988" fill="#333" font-family="Arial,Helvetica,'Helvetica Neue',sans-serif" font-size="14.667">100.0</text><path fill="none" stroke="#333" stroke-width="1.333" d="M68.436458 49.733333 L1131.563542 49.733333"/><path fill="none" stroke="#333" stroke-width="1.333" d="M68.436458 49.733333 L68.436458 55.066667"/><path fill="none" stroke="#333" stroke-width="1.333" d="M220.311763 49.733333 L220.311763 55.066667"/><path fill="none" stroke="#333" stroke-width="1.333" d="M372.187067 49.733333 L372.187067 55.066667"/><path fill="none" stroke="#333" stroke-width="1.333" d="M524.062387 49.733333 L524.062387 55.066667"/><path fill="none" stroke="#333" stroke-width="1.333" d="M675.937676 49.733333 L675.937676 55.066667"/><path fill="none" stroke="#333" stroke-width="1.333" d="M827.812965 49.733333 L827.812965 55.066667"/><path fill="none" stroke="#333" stroke-width="1.333" d="M979.688316 49.733333 L979.688316 55.066667"/><path fill="none" stroke="#333" stroke-width="1.333" d="M1131.563542 49.733333 L1131.563542 55.066667"/><text x="39.89" y="34" fill="#333" font-family="Arial,Helvetica,'Helvetica Neue',sans-serif" font-size="14.667">05:15:44</text><text x="191.765" y="34" fill="#333" font-family="Arial,Helvetica,'Helvetica Neue',sans-serif" font-size="14.667">06:06:56</text><text x="343.64" y="34" fill="#333" font-family="Arial,Helvetica,'Helvetica Neue',sans-serif" font-size="14.667">06:58:08</text><text x="495.516" y="34" fill="#333" font-family="Arial,Helvetica,'Helvetica Neue',sans-serif" font-size="14.667">07:49:20</text><text x="647.391" y="34" fill="#333" font-family="Arial,Helvetica,'Helvetica Neue',sans-serif" font-size="14.667">08:40:32</text><text x="799.266" y="34" fill="#333" font-family="Arial,Helvetica,'Helvetica Neue',sans-serif" font-size="14.667">09:31:44</text><text x="951.141" y="34" fill="#333" font-family="Arial,Helvetica,'Helvetica Neue',sans-serif" font-size="14.667">10:22:56</text><text x="1103.564" y="34" fill="#333" font-family="Arial,Helvetica,'Helvetica Neue',sans-serif" font-size="14.667">11:14:08</text><path fill="none" stroke="#e5e5e5" stroke-width="1" d="M68.436458 49.733333 L68.436458 230.266667"/><path fill="none" stroke="#e5e5e5" stroke-width="1" d="M220.311763 49.733333 L220.311763 230.266667"/><path fill="none" stroke="#e5e5e5" stroke-width="1" d="M372.187067 49.733333 L372.187067 230.266667"/><path fill="none" stroke="#e5e5e5" stroke-width="1" d="M524.062387 49.733333 L524.062387 230.266667"/><path fill="none" stroke="#e5e5e5" stroke-width="1" d="M675.937676 49.733333 L675.937676 230.266667"/><path fill="none" stroke="#e5e5e5" stroke-width="1" d="M827.812965 49.733333 L827.812965 230.266667"/><path fill="none" stroke="#e5e5e5" stroke-width="1" d="M979.688316 49.733333 L979.688316 230.266667"/><path fill="none" stroke="#e5e5e5" stroke-width="1" d="M1131.563542 49.733333 L1131.563542 230.266667"/><path fill="none" stroke="#e5e5e5" stroke-width="1" d="M68.436458 202.226735 L1131.563542 202.226735"/><path fill="none" stroke="#e5e5e5" stroke-width="1" d="M68.436458 170.416939 L1131.563542 170.416939"/><path fill="none" stroke="#e5e5e5" stroke-width="1" d="M68.436458 138.607143 L1131.563542 138.607143"/><path fill="none" stroke="#e5e5e5" stroke-width="1" d="M68.436458 106.797348 L1131.563542 106.797348"/><path fill="none" stroke="#e5e5e5" stroke-width="1" d="M68.436458 74.987552 L1131.563542 74.987552"/><path fill="#4572a7" d="M68.436458 183.95229 L81.092733 188.124428 L95.924305 221.594091 L110.755877 220.07904 L125.587449 213.02719 L140.419021 229.096626 L155.250593 230.266667 L170.082165 220.110527 L184.913737 210.56786 L199.745309 229.914252 L214.576881 218.183666 L229.408453 222.632235 L244.240025 197.125041 L259.071598 205.254868 L273.90317 216.039135 L288.734742 203.564523 L303.566314 218.096318 L318.397886 224.286914 L333.229458 229.380183 L348.06103 229.582752 L362.892602 229.55731 L377.724174 206.270416 L392.555746 117.416062 L407.387318 49.733333 L422.21889 52.92208 L437.050462 58.733143 L451.882034 137.749451 L466.713606 158.848559 L481.545178 198.56286 L496.37675 219.158526 L511.208322 226.414111 L526.039894 224.50814 L540.871466 226.827041 L555.703038 224.522062 L570.53461 201.637601 L585.366182 199.635197 L600.197754 198.823629 L615.029326 189.898103 L629.860898 194.001003 L644.69247 201.040756 L659.524042 197.704475 L674.355614 186.306753 L689.187186 168.67328 L704.018759 170.670407 L718.850331 159.075462 L733.681903 177.364138 L748.513475 185.523297 L763.345047 204.411912 L778.176619 194.589408 L793.008191 162.048852 L807.839763 155.80038 L822.671335 171.463468 L837.502907 174.708812 L852.334479 170.23008 L867.166051 161.921948 L881.997623 194.893144 L896.829195 205.598213 L911.660767 176.134057 L926.492339 195.304988 L941.323911 216.698008 L956.155483 214.463829 L970.987055 192.293145 L985.818627 208.76782 L1000.650199 210.525861 L1015.481771 213.813747 L1030.313343 210.331521 L1045.144915 213.622807 L1059.976487 201.304326 L1074.808059 212.094838 L1089.639631 205.358083 L1104.471203 198.606151 L1119.302775 204.585343 L1131.563542 216.564794 L1131.563542 230.266667 L1119.302775 230.266667 L1104.471203 230.266667 L1089.639631 230.266667 L1074.808059 230.266667 L1059.976487 230.266667 L1045.144915 230.266667 L1030.313343 230.266667 L1015.481771 230.266667 L1000.650199 230.266667 L985.818627 230.266667 L970.987055 230.266667 L956.155483 230.266667 L941.323911 230.266667 L926.492339 230.266667 L911.660767 230.266667 L896.829195 230.266667 L881.997623 230.266667 L867.166051 230.266667 L852.334479 230.266667 L837.502907 230.266667 L822.671335 230.266667 L807.839763 230.266667 L793.008191 230.266667 L778.176619 230.266667 L763.345047 230.266667 L748.513475 230.266667 L733.681903 230.266667 L718.850331 230.266667 L704.018759 230.266667 L689.187186 230.266667 L674.355614 230.266667 L659.524042 230.266667 L644.69247 230.266667 L629.860898 230.266667 L615.029326 230.266667 L600.197754 230.266667 L585.366182 230.266667 L570.53461 230.266667 L555.703038 230.266667 L540.871466 230.266667 L526.039894 230.266667 L511.208322 230.266667 L496.37675 230.266667 L481.545178 230.266667 L466.713606 230.266667 L451.882034 230.266667 L437.050462 230.266667 L422.21889 230.266667 L407.387318 230.266667 L392.555746 230.266667 L377.724174 230.266667 L362.892602 230.266667 L348.06103 230.266667 L333.229458 230.266667 L318.397886 230.266667 L303.566314 230.266667 L288.734742 230.266667 L273.90317 230.266667 L259.071598 230.266667 L244.240025 230.266667 L229.408453 230.266667 L214.576881 230.266667 L199.745309 230.266667 L184.913737 230.266667 L170.082165 230.266667 L155.250593 230.266667 L140.419021 230.266667 L125.587449 230.266667 L110.755877 230.266667 L95.924305 230.266667 L81.092733 230.266667 L68.436458 230.266667"/></svg>